<?xml version="1.0" standalone="no"?>
<!DOCTYPE svg PUBLIC "-//W3C//DTD SVG 1.1//EN" "http://www.w3.org/Graphics/SVG/1.1/DTD/svg11.dtd" >
<svg xmlns="http://www.w3.org/2000/svg" xmlns:xlink="http://www.w3.org/1999/xlink" version="1.1">
<metadata></metadata>
<defs>
<font id="playfair_displayregular" horiz-adv-x="630" >
<font-face units-per-em="1000" ascent="800" descent="-200" />
<missing-glyph horiz-adv-x="249" />
<glyph unicode="&#xfb01;" horiz-adv-x="619" d="M26 494v20h80q0 64 16.5 115t55.5 88q29 27 75 46t112 19q42 0 77 -8t57 -22q16 -10 25 -23.5t9 -31.5q0 -27 -19 -46t-45 -19t-45 19t-19 45q0 38 33 56q-13 8 -33 11.5t-40 3.5q-52 0 -87 -21t-55 -56q-14 -25 -20.5 -64t-6.5 -112h161q40 0 69 1t52 3.5t45 7.5v-433 q0 -42 17.5 -57t58.5 -15v-21q-17 1 -51.5 2.5t-69.5 1.5q-34 0 -69 -1.5t-52 -2.5v21q41 0 58.5 15t17.5 57v313q0 45 -16 66.5t-60 21.5h-161v-401q0 -43 23 -57.5t63 -14.5v-21q-20 1 -56.5 2.5t-74.5 1.5q-37 0 -70.5 -1.5t-50.5 -2.5v21q41 0 58.5 15t17.5 57v401h-80z " />
<glyph unicode="&#xfb02;" horiz-adv-x="621" d="M26 494v20h80q0 74 10.5 129.5t53.5 92.5q28 24 63 35t72 11q31 0 61 -6t67 -6q19 0 43.5 3.5t46.5 10.5v-691q0 -42 17.5 -57t58.5 -15v-21q-17 1 -51.5 2.5t-69.5 1.5q-34 0 -69 -1.5t-52 -2.5v21q41 0 58.5 15t17.5 57v557q0 32 -7 51t-20 32q-19 20 -47 27t-49 7 q-29 0 -48.5 -9.5t-30.5 -21.5q-23 -23 -29 -56.5t-6 -71.5v-94h127v-20h-127v-401q0 -43 23 -57.5t63 -14.5v-21q-20 1 -56.5 2.5t-74.5 1.5q-37 0 -70.5 -1.5t-50.5 -2.5v21q41 0 58.5 15t17.5 57v401h-80z" />
<glyph horiz-adv-x="0" />
<glyph horiz-adv-x="333" />
<glyph unicode="&#xd;" horiz-adv-x="0" />
<glyph unicode=" "  horiz-adv-x="249" />
<glyph unicode="&#x09;" horiz-adv-x="249" />
<glyph unicode="&#xa0;" horiz-adv-x="249" />
<glyph unicode="!" horiz-adv-x="262" d="M67 50q0 26 19 45t45 19t45 -19t19 -45t-19 -45t-45 -19t-45 19t-19 45zM85 726q0 30 13.5 43t32.5 13t32.5 -13t13.5 -43q0 -39 -5.5 -97t-13 -128.5t-13 -148t-5.5 -156.5h-18q0 79 -5.5 156.5t-13 148t-13 128.5t-5.5 97z" />
<glyph unicode="&#x22;" horiz-adv-x="298" d="M59 683q0 22 10.5 34t25.5 13q15 0 25.5 -12t10.5 -34q0 -33 -4 -61.5t-10.5 -64t-14.5 -90.5h-14q-7 52 -14 87.5t-11 65t-4 62.5zM168 683q0 22 10.5 34t25.5 13q15 0 25.5 -12t10.5 -34q0 -33 -4 -61.5t-10.5 -64t-14.5 -90.5h-14q-7 52 -14 87.5t-11 65t-4 62.5z" />
<glyph unicode="#" horiz-adv-x="637" d="M48 247l4 20h501l-4 -20h-501zM85 434l3 20h501l-3 -20h-501zM167 101l97 501h20l-97 -501h-20zM354 101l97 501h20l-97 -501h-20z" />
<glyph unicode="$" horiz-adv-x="523" d="M54 -7q2 21 2.5 49.5t1 74.5t0.5 116h23q4 -60 22.5 -112t57 -83.5t102.5 -31.5q49 0 89.5 31.5t40.5 101.5q0 30 -11 55t-32 46t-49.5 41t-63.5 41q-47 29 -88 59t-65.5 69.5t-24.5 95.5q0 59 26.5 97.5t69.5 57t92 18.5q50 0 76 -11.5t46 -25.5q12 -7 19.5 -10.5 t14.5 -3.5q16 0 22 44h23q-1 -17 -2.5 -40.5t-2 -62t-0.5 -101.5h-23q-3 48 -21 92t-52.5 72t-90.5 28q-53 0 -87.5 -32t-34.5 -84q0 -34 13.5 -59t37 -45.5t53.5 -39t64 -39.5q52 -32 92.5 -63.5t64 -69.5t23.5 -92q0 -64 -29 -106t-77 -63t-106 -21q-53 0 -84 12t-53 25 q-12 8 -20 11t-14 3q-16 0 -22 -44h-23zM212 -132v972h20v-972h-20zM296 -132v972h20v-972h-20z" />
<glyph unicode="%" horiz-adv-x="742" d="M35 593q0 75 42.5 121.5t106.5 46.5q67 0 108 -43t41 -120q0 -76 -42 -122t-107 -46q-67 0 -108 43t-41 120zM75 -42l585 866l19 -13l-585 -866zM105 594q0 -73 22 -109.5t59 -36.5q76 0 76 148q0 74 -21 110.5t-59 36.5q-77 0 -77 -149zM407 149q0 75 42.5 121.5 t106.5 46.5q67 0 108 -43t41 -120q0 -76 -42 -122t-107 -46q-67 0 -108 43t-41 120zM477 150q0 -73 22 -109.5t59 -36.5q76 0 76 148q0 74 -21 110.5t-59 36.5q-77 0 -77 -149z" />
<glyph unicode="&#x26;" horiz-adv-x="837" d="M54 235q0 54 21 92.5t52 63.5t62 38.5t50 18.5q-50 22 -75.5 57t-25.5 72q0 24 11 46.5t32 40.5t52.5 28t73.5 10q38 0 63 -8.5t41 -21.5q20 -16 28.5 -34.5t8.5 -34.5q0 -25 -17.5 -39t-38.5 -14q-20 0 -36 13t-16 37q0 22 15 37.5t38 17.5q-4 13 -24.5 22.5t-51.5 9.5 q-51 0 -83.5 -30.5t-32.5 -88.5q0 -28 10.5 -57t40.5 -57q17 3 35 4.5t27 1.5q40 0 40 -23q0 -9 -7.5 -14t-20.5 -5q-19 0 -40 8.5t-33 13.5q-58 -17 -94 -55.5t-36 -108.5q0 -69 36 -117t96.5 -73.5t135.5 -25.5q53 0 100.5 12.5t84 36.5t57.5 57.5t21 76.5q0 19 -8 48.5 t-33 58t-77 44.5l12 10q73 -22 104 -70.5t31 -108.5t-36 -115t-104 -89.5t-165 -34.5q-86 0 -160 30t-119 86t-45 133zM320 285q0 52 35 87.5t103 58.5q30 10 73 22t88.5 26t82.5 31q50 23 68 47t18 49q0 43 -34.5 72t-81.5 29q-12 0 -20 -2t-10 -7q14 -7 21 -20t7 -26 q0 -21 -16.5 -35t-39.5 -14q-19 0 -36 12.5t-17 37.5q0 26 17.5 41t43 21.5t49.5 6.5q62 0 104 -35.5t42 -99.5q0 -51 -27.5 -85.5t-67.5 -54.5q-23 -11 -60.5 -24t-80 -26t-81 -25.5t-62.5 -21.5q-37 -14 -62.5 -34.5t-25.5 -52.5q0 -26 15 -44t36.5 -27t40.5 -9 q14 0 35.5 5.5t24.5 16.5q-16 3 -31.5 14.5t-15.5 36.5q0 24 16 38t39 14q24 0 38.5 -15t14.5 -39q0 -28 -18.5 -47.5t-46 -29t-54.5 -9.5q-28 0 -57 12t-48 37.5t-19 67.5z" />
<glyph unicode="'" horiz-adv-x="189" d="M59 683q0 22 10.5 34t25.5 13q15 0 25.5 -12t10.5 -34q0 -33 -4 -61.5t-10.5 -64t-14.5 -90.5h-14q-7 52 -14 87.5t-11 65t-4 62.5z" />
<glyph unicode="(" horiz-adv-x="294" d="M44 312q0 -155 59.5 -278.5t160.5 -215.5l14 13q-84 98 -117 214.5t-33 266.5t33 266.5t117 214.5l-14 13q-101 -92 -160.5 -215.5t-59.5 -278.5z" />
<glyph unicode=")" horiz-adv-x="294" d="M16 -169q84 98 117 214.5t33 266.5t-33 266.5t-117 214.5l14 13q101 -92 160.5 -215.5t59.5 -278.5t-59.5 -278.5t-160.5 -215.5z" />
<glyph unicode="*" horiz-adv-x="492" d="M61 439.5q5 15.5 31 31.5q25 14 61.5 23t91.5 25l2 -3q-40 -37 -67 -66t-51 -43q-26 -15 -42.5 -10.5t-23.5 16.5q-7 11 -2 26.5zM61.5 595.5q-4.5 16.5 2.5 28.5q6 11 22 15t42 -11q25 -14 51 -41.5t67 -67.5l-1 -3q-52 16 -90.5 25.5t-63.5 22.5q-25 15 -29.5 31.5z M209 675q0 30 12 42t25 12q14 0 25 -12t11 -42q0 -28 -10.5 -64.5t-24.5 -92.5h-3q-13 53 -24 91t-11 66zM210 361q0 29 11 65t24 92h3q13 -53 24 -91t12 -66q-1 -30 -13 -42t-26 -12q-13 0 -24 11.5t-11 42.5zM245 517l2 3q53 -16 91 -25t63 -23q26 -15 30.5 -31.5 t-3.5 -28.5q-6 -11 -22 -15t-42 11q-25 14 -51 41.5t-68 67.5zM245 520q40 38 67 66.5t51 42.5q26 15 42.5 10.5t23.5 -16.5q7 -11 2 -27t-31 -31q-25 -14 -61.5 -22.5t-92.5 -25.5z" />
<glyph unicode="+" horiz-adv-x="587" d="M43 340v30h233v236h36v-236h232v-30h-232v-235h-36v235h-233z" />
<glyph unicode="," horiz-adv-x="261" d="M62 50q0 28 19 46t45 18q22 0 36 -9t23 -23q11 -16 14 -35t3 -31q0 -49 -25 -89t-78 -65l-9 18q31 13 53.5 41t22.5 57q0 12 -3 21q-16 -13 -37 -13q-26 0 -45 17t-19 47z" />
<glyph unicode="-" horiz-adv-x="499" d="M69 240v58h361v-58h-361z" />
<glyph unicode="." horiz-adv-x="252" d="M62 50q0 26 19 45t45 19t45 -19t19 -45t-19 -45t-45 -19t-45 19t-19 45z" />
<glyph unicode="/" horiz-adv-x="372" d="M34 -14l272 736h33l-272 -736h-33z" />
<glyph unicode="0" horiz-adv-x="600" d="M52 250q0 79 31.5 142t88.5 100t133 37q71 0 125.5 -32.5t85.5 -91.5t31 -139t-32 -143.5t-88.5 -100t-132.5 -36.5q-69 0 -124 32.5t-86.5 92t-31.5 139.5zM149 253q0 -90 21 -144.5t56.5 -79.5t76.5 -25q65 0 106 68.5t41 190.5q0 90 -21 144.5t-56 79t-77 24.5 q-64 0 -105.5 -68t-41.5 -190z" />
<glyph unicode="1" horiz-adv-x="370" d="M47 453v22q72 2 120 13t86 38v-423q0 -48 22 -65t74 -17v-21q-20 1 -58.5 2.5t-79.5 1.5q-46 0 -88.5 -1.5t-65.5 -2.5v21q50 0 78 16.5t28 65.5v242q0 48 -10 71t-35.5 30t-70.5 7z" />
<glyph unicode="2" horiz-adv-x="479" d="M47 404q23 47 69.5 86t127.5 39q69 0 109.5 -32.5t40.5 -93.5q0 -50 -28 -93.5t-70 -82.5t-84 -76t-69 -74h203q41 0 52 11.5t15 39.5h17q0 -53 1 -81.5t3 -51.5q-13 3 -58.5 4t-90.5 1h-234v17q30 33 72 70.5t81.5 82t66 97t26.5 114.5q0 57 -26.5 82.5t-73.5 25.5 q-40 0 -74 -23.5t-60 -70.5z" />
<glyph unicode="3" horiz-adv-x="451" d="M37 -133q51 1 100 16.5t88.5 44.5t63 72t23.5 98q0 59 -28.5 97.5t-77.5 42.5q-15 -6 -26.5 -10.5t-20.5 -4.5q-16 0 -16 13q0 9 8 14t18 5q8 0 16.5 -1.5t18.5 -2.5q41 31 59 68.5t18 75.5q0 47 -23.5 68.5t-63.5 21.5q-41 0 -75.5 -22t-57.5 -67l-17 8q15 33 39 61.5 t59.5 46t84.5 17.5q62 0 103 -30.5t41 -83.5q0 -39 -21.5 -71.5t-55.5 -56t-72 -37.5q47 -1 89 -17.5t69 -49.5t27 -85q0 -57 -33 -103t-87.5 -78.5t-120 -50t-129.5 -17.5v18z" />
<glyph unicode="4" horiz-adv-x="494" d="M17 54v21l325 454l4 -26l-281 -398l-1 16h306q41 0 52 11.5t15 39.5h17q0 -49 1 -75t3 -48q-9 2 -33 3t-55 1.5t-61 0.5h-292zM278 -141v564l64 106h16v-670h-80z" />
<glyph unicode="5" horiz-adv-x="415" d="M45 -130q59 1 112.5 26t88 75.5t34.5 125.5q0 63 -32.5 98.5t-93.5 35.5q-26 0 -43.5 -4.5t-38.5 -12.5l-10 6l19 298q11 -2 25.5 -3t28.5 -1h113q41 0 52 11.5t15 39.5h19q0 -57 1 -89t3 -57q-13 3 -55 4t-84 1h-106l-12 -193q22 11 49 20.5t68 9.5q91 0 134 -44 t43 -110q0 -58 -29 -105t-77.5 -80.5t-106.5 -51.5t-117 -18v18z" />
<glyph unicode="6" horiz-adv-x="517" d="M55 270q0 91 22 161t58.5 121.5t81 86.5t91 55.5t86.5 28.5l4 -20q-41 -13 -84.5 -37.5t-80 -71.5t-59 -124.5t-22.5 -197.5q0 -105 18 -163t45 -80.5t54 -22.5q44 0 78.5 47.5t34.5 159.5q0 108 -32 152t-76 44q-22 0 -48 -10t-48 -33.5t-32 -66.5l-10 -6q7 56 35 87.5 t63.5 44.5t64.5 13q47 0 88 -25.5t66.5 -74t25.5 -118.5q0 -75 -30 -127.5t-80 -79.5t-110 -27q-95 0 -149.5 74.5t-54.5 209.5z" />
<glyph unicode="7" horiz-adv-x="406" d="M27 519q14 -3 59 -4t90 -1h222v-21q-21 -51 -50.5 -105t-58 -115.5t-47 -133t-17.5 -157.5q0 -16 1 -30t2 -26t1 -23q0 -22 -13 -36.5t-34 -14.5q-23 0 -34 17t-11 39q0 68 17.5 131t45.5 122.5t61.5 116t66 110t58.5 105.5l-28 -63h-243q-41 0 -52 -11t-15 -40h-17 q0 53 -1 85t-3 55z" />
<glyph unicode="8" horiz-adv-x="520" d="M52 154q0 77 51 132t123 88l8 -14q-52 -35 -73 -84.5t-21 -106.5q0 -43 11.5 -80.5t38 -61t69.5 -23.5q50 0 87.5 33.5t37.5 97.5q0 49 -21.5 86t-55.5 68.5t-72.5 60.5t-72.5 60t-55.5 69t-21.5 87q0 47 24.5 82t66 54.5t92.5 19.5q68 0 116.5 -34.5t48.5 -102.5 q0 -61 -40 -108t-103 -87l-8 14q38 32 54.5 75.5t16.5 92.5q0 59 -24.5 95.5t-71.5 36.5q-40 0 -67 -28.5t-27 -78.5q0 -47 22 -82.5t57 -64.5t74 -56.5t74 -58t57 -69t22 -89.5q0 -57 -28 -100t-76.5 -67t-111.5 -24q-53 0 -99 18.5t-74 56t-28 93.5z" />
<glyph unicode="9" horiz-adv-x="509" d="M37 295q0 75 30 127.5t80 79.5t110 27q95 0 149.5 -69t54.5 -195q0 -82 -22 -146t-58.5 -111.5t-81 -79.5t-90.5 -50.5t-87 -25.5l-4 20q41 12 84.5 34t80 64t59 113t22.5 180q0 98 -18 151t-44.5 74t-54.5 21q-44 0 -78.5 -47.5t-34.5 -159.5q0 -108 32 -152t76 -44 q22 0 48 10t48.5 34t31.5 66l10 6q-7 -56 -35 -87.5t-63 -44.5t-65 -13q-46 0 -87.5 25.5t-67 74t-25.5 118.5z" />
<glyph unicode=":" horiz-adv-x="266" d="M69 50q0 26 19 45t45 19t45 -19t19 -45t-19 -45t-45 -19t-45 19t-19 45zM69 464q0 26 19 45t45 19t45 -19t19 -45t-19 -45t-45 -19t-45 19t-19 45z" />
<glyph unicode=";" horiz-adv-x="285" d="M73 50q0 28 19 46t45 18q22 0 36 -9t23 -23q11 -16 14 -35t3 -31q0 -49 -25 -89t-78 -65l-9 18q31 13 53.5 41t22.5 57q0 12 -3 21q-16 -13 -37 -13q-26 0 -45 17t-19 47zM80 464q0 26 19 45t45 19t45 -19t19 -45t-19 -45t-45 -19t-45 19t-19 45z" />
<glyph unicode="&#x3c;" horiz-adv-x="608" d="M30 355l487 227l17 -36l-409 -191l409 -191l-17 -36z" />
<glyph unicode="=" horiz-adv-x="647" d="M73 270v30h501v-30h-501zM73 410v30h501v-30h-501z" />
<glyph unicode="&#x3e;" horiz-adv-x="608" d="M74 164l17 -36l487 227l-487 227l-17 -36l409 -191z" />
<glyph unicode="?" horiz-adv-x="459" d="M32 674q0 21 13 39.5t34 32.5t54.5 25t81.5 11q94 0 152 -48t58 -132q0 -85 -62 -140.5t-163 -81.5v-146h-20v155q67 25 100 55t44.5 65t11.5 74q0 95 -39 137t-101 42q-24 0 -52.5 -7t-45.5 -29q19 -4 30.5 -17t11.5 -34q0 -25 -16 -39.5t-39 -14.5t-38 15t-15 38z M127 50q0 26 19 45t45 19t45 -19t19 -45t-19 -45t-45 -19t-45 19t-19 45z" />
<glyph unicode="@" horiz-adv-x="878" d="M49 143q0 101 37 195t103.5 168.5t154 118t188.5 43.5q87 0 157.5 -28t112.5 -88.5t42 -158.5q0 -84 -27 -152t-70.5 -116t-94 -73.5t-98.5 -25.5q-40 0 -56 17t-16 41.5t6 47.5t9 34l61 298q23 0 47 3t43 11l-84 -367q-10 -34 -4.5 -47t27.5 -13q29 0 69 22.5t78.5 66 t64 107.5t25.5 147q0 93 -40 149t-106 81.5t-145 25.5q-92 0 -175.5 -40.5t-148.5 -110.5t-102.5 -161t-37.5 -193q0 -103 39 -166.5t107 -92.5t154 -29q54 0 105.5 12.5t100.5 41.5l7 -13q-37 -26 -92 -42.5t-122 -16.5q-93 0 -165 32t-113 99t-41 173zM240 147 q0 57 21 115.5t55.5 107t76.5 78.5t85 30q23 0 40.5 -9t27 -28.5t6.5 -53.5l-8 -4q0 26 -7 42t-21 23t-34 7q-33 0 -61.5 -27t-50 -71.5t-33.5 -97.5t-12 -106q0 -49 13.5 -73t38.5 -24q39 0 79.5 61t65.5 168l8 -16q-22 -83 -48 -137t-59.5 -80t-79.5 -26q-57 0 -80 35 t-23 86z" />
<glyph unicode="A" d="M-7 0v20q20 5 41 23.5t38 63.5l235 606h8h8l244 -629q15 -38 34 -50.5t35 -13.5v-20q-20 2 -49 2.5t-58 0.5q-39 0 -73 -0.5t-55 -2.5v20q51 2 65 18q6 6 6 18q0 18 -12 48l-186 497l16 13l-174 -452q-20 -52 -20 -82q0 -33 23 -46q22 -13 64 -14v-20q-28 2 -58.5 2.5 t-56.5 0.5q-25 0 -42.5 -0.5t-32.5 -2.5zM147 268l10 20h288v-20h-298z" />
<glyph unicode="B" horiz-adv-x="623" d="M42 0v20q34 2 51.5 8t23.5 24t6 54v496q0 37 -6 54.5t-23.5 24t-51.5 7.5v20q21 -1 55 -2t67 -1q47 0 90 1t61 1q105 0 158 -44t53 -113q0 -35 -14.5 -68.5t-48 -61t-89.5 -44.5v-2q79 -10 123.5 -37.5t62.5 -64.5t18 -78q0 -85 -63.5 -139.5t-176.5 -54.5q-22 0 -66 1.5 t-106 1.5q-35 0 -69 -0.5t-55 -2.5zM197 359v9v8h86q59 0 91 22.5t44 60t12 80.5q0 74 -32.5 111.5t-107.5 37.5q-46 0 -60 -17t-14 -69v-496q0 -52 14.5 -67.5t60.5 -15.5q98 0 142.5 45.5t44.5 129.5q0 77 -41.5 119t-136.5 42h-103z" />
<glyph unicode="C" horiz-adv-x="688" d="M53 348q0 112 41 196t112.5 131t164.5 47q66 0 108.5 -19.5t75.5 -45.5q11 -8 20 -8q7 1 11 5q10 12 14 54h23q-2 -37 -3 -90t-1 -140h-23q-7 43 -13 68.5t-14.5 43.5t-22.5 36q-31 41 -78 59.5t-99 18.5q-49 0 -88.5 -24.5t-68 -70.5t-44 -111t-15.5 -146 q0 -84 17 -148.5t47.5 -108.5t72 -66.5t89.5 -22.5q45 0 94 18t77 58q22 29 30.5 63t15.5 95h23q0 -91 1 -146.5t3 -93.5h-23q-4 43 -14 54q-4 5 -10 5q-8 0 -21 -8q-37 -26 -78.5 -45.5t-106.5 -19.5q-95 0 -166.5 43t-111 124t-39.5 195z" />
<glyph unicode="D" horiz-adv-x="723" d="M42 0v20q34 2 51.5 8t23.5 24t6 54v496q0 37 -6 54.5t-23.5 24t-51.5 7.5v20q21 0 55 -2q20 -1 40 -1h27q35 1 79 2t72 1q179 0 266 -89.5t87 -256.5q0 -109 -42.5 -190.5t-123.5 -126.5t-196 -45q-22 0 -65 1.5t-75 1.5q-35 0 -69 -0.5t-55 -2.5zM216 104 q0 -52 14.5 -69t60.5 -17q109 0 169 39.5t84 115.5t24 185q0 168 -61.5 250t-216.5 82q-46 0 -60 -17t-14 -69v-500z" />
<glyph unicode="E" horiz-adv-x="609" d="M42 0v20q34 2 51.5 8t23.5 24t6 54v496q0 37 -6 54.5t-23.5 24t-51.5 7.5v20q49 -1 105 -2t105.5 -1h79.5q46 0 104.5 0.5t104.5 2.5q-4 -35 -5.5 -68t-1.5 -50q0 -18 1 -34.5t2 -27.5h-23q-6 59 -17 93.5t-37.5 49t-79.5 14.5h-83q-34 0 -51.5 -5.5t-23.5 -23t-6 -54.5 v-496q0 -36 6 -54t23.5 -23.5t51.5 -5.5h73q63 0 95.5 17t47 55.5t21.5 104.5h23q-3 -27 -3 -72q0 -19 1.5 -54.5t5.5 -73.5q-51 2 -115 2.5t-114 0.5h-79.5t-105.5 -0.5t-105 -2.5zM186 346v10v10h183v-10v-10h-183zM282 346v20q44 0 61.5 23t22.5 54t9 55h23 q-4 -51 -4 -80v-7q0 -30 1 -55q0 -25 1 -55t5 -87h-23q-4 32 -9.5 62.5t-24 50t-62.5 19.5z" />
<glyph unicode="F" horiz-adv-x="569" d="M42 0v20q34 2 51.5 8t23.5 24t6 54v496q0 37 -6 54.5t-23.5 24t-51.5 7.5v20q49 -1 105 -2t105.5 -1h79.5q46 0 104.5 0.5t104.5 2.5q-4 -38 -5.5 -73.5t-1.5 -54.5q0 -24 1 -45t2 -37h-23q-7 70 -19 110.5t-42 58.5t-93 18h-63q-34 0 -51.5 -5.5t-23.5 -23t-6 -54.5 v-496q0 -36 7.5 -54t29.5 -24t64 -8v-20q-26 2 -66 2.5t-81 0.5q-39 0 -73 -0.5t-55 -2.5zM186 336v10v10h200v-10v-10h-200zM289 336v20q44 0 61.5 23t22.5 54t9 55h23q-4 -51 -4 -80q1 -4 1 -7v-55t1 -55t5 -87h-23q-4 32 -9.5 62.5t-24 50t-62.5 19.5z" />
<glyph unicode="G" horiz-adv-x="703" d="M54 342q0 117 42 202t114.5 131.5t165.5 46.5q65 0 105 -19.5t75 -45.5q13 -10 20 -10q19 0 25 61h23q-2 -37 -3 -90t-1 -140h-23q-7 42 -17 81t-33 67q-29 37 -76 57.5t-97 20.5t-90.5 -24.5t-69.5 -70.5t-44.5 -110.5t-15.5 -145.5q0 -180 58 -263.5t180 -83.5 q36 0 62.5 10.5t41.5 20.5q19 13 24 24.5t5 30.5v96q0 41 -8 61t-29.5 27t-63.5 8v20q18 -1 42 -1.5t50.5 -1t48.5 -0.5q33 0 59.5 1t44.5 2v-20q-33 -2 -42 -16t-9 -70v-198h-20q-1 17 -7.5 37t-19.5 20q-6 0 -12 -3t-21 -14q-33 -25 -70 -39.5t-86 -14.5 q-155 0 -241.5 94.5t-86.5 261.5z" />
<glyph unicode="H" horiz-adv-x="757" d="M42 0v20q34 2 51.5 8t23.5 24t6 54v496q0 37 -6 54.5t-23.5 24t-51.5 7.5v20q21 -1 55 -2t73 -1q35 0 69.5 1t57.5 2v-20q-34 -1 -51.5 -7.5t-23.5 -24t-6 -54.5v-496q0 -36 6 -54t23.5 -24t51.5 -8v-20q-23 2 -57.5 2.5t-69.5 0.5q-39 0 -73 -0.5t-55 -2.5zM181 346v20 h395v-20h-395zM460 0v20q34 2 51.5 8t23.5 24t6 54v496q0 37 -6 54.5t-23.5 24t-51.5 7.5v20q23 -1 58 -2t69 -1q39 0 73 1t55 2v-20q-34 -1 -51.5 -7.5t-23.5 -24t-6 -54.5v-496q0 -36 6 -54t23.5 -24t51.5 -8v-20q-21 2 -55 2.5t-73 0.5q-34 0 -69 -0.5t-58 -2.5z" />
<glyph unicode="I" horiz-adv-x="339" d="M42 0v20q34 2 51.5 8t23.5 24t6 54v496q0 37 -6 54.5t-23.5 24t-51.5 7.5v20q21 -1 55 -2t73 -1q35 0 69.5 1t57.5 2v-20q-34 -1 -51.5 -7.5t-23.5 -24t-6 -54.5v-496q0 -36 6 -54t23.5 -24t51.5 -8v-20q-23 2 -57.5 2.5t-69.5 0.5q-39 0 -73 -0.5t-55 -2.5z" />
<glyph unicode="J" horiz-adv-x="326" d="M-20 -169q45 1 75.5 22t46 69.5t15.5 129.5v550q0 37 -6 54.5t-23.5 24t-51.5 7.5v20q21 -1 55 -2t71 -1t71.5 1t57.5 2v-20q-34 -1 -51.5 -7.5t-23.5 -24t-6 -54.5v-366q0 -41 -1 -89t-4.5 -93t-11.5 -79q-17 -70 -71.5 -116.5t-141.5 -46.5v19z" />
<glyph unicode="K" horiz-adv-x="655" d="M42 0v20q34 2 51.5 8t23.5 24t6 54v496q0 37 -6 54.5t-23.5 24t-51.5 7.5v20q21 -1 55 -2t73 -1q35 0 69.5 1t57.5 2v-20q-34 -1 -51.5 -7.5t-23.5 -24t-6 -54.5v-496q0 -36 6 -54t23.5 -24t51.5 -8v-20q-23 2 -57.5 2.5t-69.5 0.5q-39 0 -73 -0.5t-55 -2.5zM212 358v20 q42 1 70.5 16.5t47.5 39.5l96 122q33 42 45 71q6 14 6 25q0 12 -7 20q-13 16 -55 16v20q29 -1 59 -2t56 -1q55 0 85 3v-20q-31 -4 -60 -20t-58 -53l-193 -247l22 49l240 -336q17 -25 37 -39t51 -22v-20q-24 2 -59.5 2.5t-60.5 0.5q-17 0 -41.5 -0.5t-61.5 -2.5v20 q34 2 43 12q3 4 3 9q0 9 -10 24l-146 220q-20 31 -35.5 46.5t-32 20.5t-41.5 6z" />
<glyph unicode="L" horiz-adv-x="588" d="M42 0v20q34 2 51.5 8t23.5 24t6 54v496q0 37 -6 54.5t-23.5 24t-51.5 7.5v20q21 -1 55 -2t73 -1q35 0 69.5 1t57.5 2v-20q-34 -1 -51.5 -7.5t-23.5 -24t-6 -54.5v-496q0 -36 6 -54t23.5 -23.5t51.5 -5.5h73q63 0 95.5 18t47 59t21.5 110h23q-3 -31 -3 -82 q0 -19 1.5 -54.5t5.5 -73.5q-51 2 -115 2.5t-114 0.5h-79.5t-105.5 -0.5t-105 -2.5z" />
<glyph unicode="M" horiz-adv-x="871" d="M42 0v20q34 2 51.5 10.5t23.5 29t6 56.5v486q0 37 -6 54.5t-23.5 24t-51.5 7.5v20q17 -1 42.5 -2t50.5 -1q22 0 45.5 1t39.5 2l227 -598l-17 -8l225 603h23.5h23.5q35 0 69.5 1t57.5 2v-20q-34 -1 -51.5 -7.5t-23.5 -24t-6 -54.5v-496q0 -36 6 -54t23.5 -24t51.5 -8v-20 q-23 2 -57.5 2.5t-69.5 0.5q-39 0 -73 -0.5t-55 -2.5v20q34 2 51.5 8t23.5 24t6 54v550l4 -3l-245 -658h-16l-252 649v-528q0 -36 6.5 -56.5t26 -29t58.5 -10.5v-20q-18 2 -47 2.5t-55 0.5q-25 0 -50.5 -0.5t-42.5 -2.5z" />
<glyph unicode="N" horiz-adv-x="706" d="M42 0v20q34 2 51.5 10.5t23.5 29t6 56.5v486q0 37 -6 54.5t-23.5 24t-51.5 7.5v20q17 -1 42.5 -2t50.5 -1q22 0 42 1t36 2l353 -544v428q0 37 -6.5 57t-26 29t-58.5 10v20q18 -1 47.5 -2t54.5 -1q26 0 51.5 1t41.5 2v-20q-34 -1 -51.5 -10t-23.5 -29t-6 -57v-597h-11.5 h-11.5l-420 649v-528q0 -36 6.5 -56.5t26 -29t58.5 -10.5v-20q-18 2 -47 2.5t-55 0.5q-25 0 -50.5 -0.5t-42.5 -2.5z" />
<glyph unicode="O" horiz-adv-x="741" d="M53 348q0 112 41 196t112.5 131t164.5 47q95 0 166.5 -43t111 -123.5t39.5 -195.5q0 -112 -40.5 -196t-112.5 -131t-165 -47q-95 0 -166.5 43t-111 124t-39.5 195zM153 352q0 -106 29.5 -184.5t80 -121t111.5 -42.5q65 0 113 45t74.5 124.5t26.5 182.5q0 107 -29.5 185 t-79.5 120.5t-112 42.5q-65 0 -113 -45t-74.5 -124t-26.5 -183z" />
<glyph unicode="P" horiz-adv-x="585" d="M42 0v20q34 2 51.5 8t23.5 24t6 54v496q0 37 -6 54.5t-23.5 24t-51.5 7.5v20q21 -1 55 -2t67 -1q47 0 90 1t61 1q121 0 181 -55t60 -142q0 -36 -12 -75.5t-41.5 -73t-80.5 -54.5t-129 -21h-96v20h86q71 0 108.5 27t51 71t13.5 95q0 95 -37.5 142t-128.5 47q-46 0 -60 -17 t-14 -69v-496q0 -36 7.5 -54t29.5 -24t64 -8v-20q-26 2 -66 2.5t-81 0.5q-39 0 -73 -0.5t-55 -2.5z" />
<glyph unicode="Q" horiz-adv-x="741" d="M53 348q0 112 41 196t112.5 131t164.5 47q95 0 166.5 -43t111 -123.5t39.5 -195.5q0 -112 -40.5 -196t-112.5 -131t-165 -47q-95 0 -166.5 43t-111 124t-39.5 195zM90 -70q0 21 54 21q35 0 75 -8q36 10 62 22.5t53.5 23.5t66.5 14l1 -16q-30 -3 -52 -11.5t-44 -18.5 t-52 -19q50 -10 109 -21t114 -19t94 -8q72 0 113.5 21t63.5 66l15 -6q-12 -41 -27.5 -68.5t-35.5 -45.5q-19 -17 -51.5 -31t-83.5 -14q-53 0 -102.5 17.5t-102.5 42.5t-117 46q-7 2 -13 4t-11 3q-19 -7 -41 -11t-42 -4t-33 5t-13 15zM153 352q0 -106 29.5 -184.5t80 -121 t111.5 -42.5q65 0 113 45t74.5 124.5t26.5 182.5q0 107 -29.5 185t-79.5 120.5t-112 42.5q-65 0 -113 -45t-74.5 -124t-26.5 -183z" />
<glyph unicode="R" horiz-adv-x="648" d="M42 0v20q34 2 51.5 8t23.5 24t6 54v496q0 37 -6 54.5t-23.5 24t-51.5 7.5v20q21 -1 55 -2t67 -1q47 0 90 1t61 1q121 0 181 -50t60 -124q0 -30 -12 -64t-41.5 -64t-80.5 -49.5t-129 -19.5h-96v20h86q71 0 108.5 22.5t51 60t13.5 83.5q0 79 -37.5 122.5t-128.5 43.5 q-46 0 -60 -17t-14 -69v-496q0 -36 6 -54t23.5 -24t51.5 -8v-20q-23 2 -57.5 2.5t-69.5 0.5q-39 0 -73 -0.5t-55 -2.5zM201 353q54 -2 85 -4.5t50.5 -4.5t37.5 -5q67 -11 96.5 -40.5t43.5 -91.5l25 -102q11 -43 21 -63q10 -19 30 -19h2q17 1 28.5 11t24.5 27l15 -11 q-21 -31 -43.5 -47.5t-63.5 -16.5q-37 0 -65 22t-42 86l-22 100q-9 43 -20.5 74.5t-32 49.5t-60.5 18h-108z" />
<glyph unicode="S" horiz-adv-x="540" d="M63 -7q2 21 2.5 49.5t1 74.5t0.5 116h23q4 -60 22.5 -112t57 -83.5t102.5 -31.5q49 0 89.5 31.5t40.5 101.5q0 61 -43 101t-113 82q-47 29 -88 59t-65.5 69.5t-24.5 95.5q0 59 26.5 97.5t69.5 57t92 18.5q50 0 76 -11.5t46 -25.5q12 -7 19.5 -10.5t14.5 -3.5q16 0 22 44 h23q-1 -17 -2.5 -40.5t-2 -62t-0.5 -101.5h-23q-3 48 -21 92t-52.5 72t-90.5 28q-53 0 -87.5 -32t-34.5 -84q0 -45 23 -75.5t61.5 -55t83.5 -52.5q52 -32 92.5 -63.5t64 -69.5t23.5 -92q0 -64 -29 -106t-77 -63t-106 -21q-53 0 -84 12t-53 25q-22 14 -34 14q-16 0 -22 -44 h-23z" />
<glyph unicode="T" horiz-adv-x="621" d="M29 708q42 -1 91.5 -2t99.5 -1h91h90.5t99.5 1t91 2q-4 -38 -5.5 -73.5t-1.5 -54.5q0 -24 1 -45t2 -37h-23q-7 70 -19 110.5t-42 58.5t-93 18h-54v-569q0 -40 7.5 -60t29.5 -27t64 -9v-20q-26 2 -66 2.5t-81 0.5q-45 0 -84.5 -0.5t-63.5 -2.5v20q42 2 64 9t29.5 27 t7.5 60v569h-54q-62 0 -92.5 -18t-42.5 -58.5t-19 -110.5h-23q2 16 2.5 37t0.5 45q0 19 -1.5 54.5t-5.5 73.5z" />
<glyph unicode="U" horiz-adv-x="682" d="M27 688v20q21 -1 55 -2t73 -1q35 0 69.5 1t57.5 2v-20q-34 -1 -51.5 -7.5t-23.5 -24t-6 -54.5v-331q0 -68 10 -125t43.5 -91t104.5 -34q76 0 117.5 33.5t58 92.5t16.5 133v312q0 37 -8.5 57t-28.5 29t-54 10v20q18 -1 47.5 -2t54.5 -1q26 0 51.5 1t41.5 2v-20 q-34 -1 -51.5 -10t-23.5 -29t-6 -57v-301q0 -70 -9 -122t-32 -90q-25 -42 -73 -67.5t-110 -25.5q-48 0 -91.5 11.5t-76.5 42.5q-29 28 -45.5 59t-22.5 76t-6 113v314q0 37 -6 54.5t-23.5 24t-51.5 7.5z" />
<glyph unicode="V" d="M-6 688v20q20 -1 49.5 -2t57.5 -1q39 0 73 1t55 2v-20q-51 -2 -65 -18q-6 -6 -5 -19q0 -18 11 -47l186 -493l-16 -17l174 452q20 52 20 82q0 33 -23 46q-22 13 -64 14v20q29 -1 59 -2t56 -1t43 1t32 2v-20q-19 -4 -40.5 -23t-38.5 -64l-235 -606h-4h-4h-4h-4l-244 629 q-15 38 -34 50.5t-35 13.5z" />
<glyph unicode="W" horiz-adv-x="905" d="M-7 688v20q20 -1 49.5 -2t57.5 -1q33 0 61.5 1t46.5 2v-20q-26 -2 -37.5 -10t-11 -25.5t10.5 -48.5l155 -473l-25 -25l140 447l15 -24l-165 -534h-4h-4h-4h-4l-212 629q-13 39 -33 51t-36 13zM352 688v20q18 -1 45 -2t52 -1q39 0 73 1t55 2v-20q-30 -1 -47.5 -6 t-19.5 -22q0 -3 -1 -7q0 -17 10 -49l149 -461l-14 -12l132 415q17 51 17 81q0 33 -23 47q-21 12 -63 14v20q29 -1 59 -2t56 -1t43 1t32 2v-20q-19 -4 -42 -22.5t-37 -64.5l-189 -606h-4h-4h-4h-4l-212 629q-13 39 -29 51t-30 13z" />
<glyph unicode="X" horiz-adv-x="634" d="M16 0v20q31 5 58 28t55 64l170 253l5 -13l4 -13l-123 -183q-38 -56 -38 -86q0 -26 23 -38q24 -12 66 -12v-20q-19 1 -44 1.5t-49 1t-42 0.5q-55 0 -85 -3zM17 687v21q13 -1 37 -2.5t49 -1.5q41 0 77 1.5t64 2.5v-21q-50 -1 -61 -11q-5 -5 -5 -11q0 -9 8 -22l374 -572 q19 -29 32 -38.5t35 -11.5v-21q-13 1 -36.5 2.5t-49.5 1.5q-40 0 -80.5 -1.5t-60.5 -2.5v21q50 0 64 6q7 3 7 10t-7 18l-380 582q-19 29 -31.5 39t-35.5 11zM326 382l114 170q44 66 44 96q0 7 -2 12q-12 27 -76 28v20q29 -1 59 -2t56 -1q55 0 85 3v-20q-31 -4 -58 -27.5 t-55 -64.5l-161 -240l-2 6z" />
<glyph unicode="Y" horiz-adv-x="591" d="M-3 687v21q20 -1 41.5 -2t46.5 -1q33 0 70.5 0.5t69.5 2.5v-21q-25 0 -44 -6t-25 -22q-2 -5 -2 -10q0 -14 11 -35l169 -324l-8 -6l133 265q28 54 28 84q0 31 -24 43q-23 11 -65 12v20q29 -1 59 -2t56 -1t43 1t32 2v-20q-19 -4 -38 -24.5t-42 -64.5l-202 -400h-17 l-234 432q-20 37 -33.5 46.5t-24.5 9.5zM177 0v20q34 2 51.5 8t23.5 24t6 54v205l54 -62l39 55v-198q0 -36 6 -54t23.5 -24t51.5 -8v-20q-23 2 -57.5 2.5t-69.5 0.5q-39 0 -73 -0.5t-55 -2.5z" />
<glyph unicode="Z" horiz-adv-x="594" d="M42 0v20l402 665h-195q-62 0 -95 -18t-47.5 -58.5t-21.5 -110.5h-23q2 16 2.5 37t0.5 45q0 19 -1.5 54.5t-5.5 73.5q56 -2 125 -2.5t124 -0.5q57 0 122.5 0.5t120.5 2.5v-20l-399 -666h196q47 0 76.5 10.5t47 32t26.5 57.5t14 88h23q-3 -31 -3 -82q0 -19 1.5 -54.5 t5.5 -73.5q-55 2 -124.5 2.5t-124.5 0.5q-59 0 -124.5 -0.5t-122.5 -2.5z" />
<glyph unicode="[" horiz-adv-x="296" d="M92 -181v953h171v-19h-81v-915h81v-19h-171z" />
<glyph unicode="\" horiz-adv-x="372" d="M33 722l272 -736h33l-272 736h-33z" />
<glyph unicode="]" horiz-adv-x="296" d="M33 -162v-19h171v953h-171v-19h81v-915h-81z" />
<glyph unicode="^" horiz-adv-x="536" d="M72 336q65 32 114.5 84t72.5 108h18q23 -56 72.5 -108t114.5 -84l-8 -14q-60 22 -116.5 54.5t-91.5 65.5q-28 -33 -74 -65.5t-94 -54.5z" />
<glyph unicode="_" horiz-adv-x="591" d="M69 -115h453v-40h-453v40z" />
<glyph unicode="`" horiz-adv-x="283" d="M50.5 787q1.5 16 13.5 26q12 9 28.5 7t31.5 -22q15 -19 28 -45t31.5 -61t49.5 -84l-11 -9q-39 42 -69 68.5t-51.5 45.5t-37.5 38q-15 20 -13.5 36z" />
<glyph unicode="a" horiz-adv-x="498" d="M39 112q0 42 20.5 69.5t52.5 45t67.5 30t67.5 24.5t52.5 27t20.5 38v62q0 42 -12.5 64t-33.5 29.5t-47 7.5q-25 0 -53.5 -7t-45.5 -29q19 -4 33 -20t14 -41t-16 -39.5t-41 -14.5q-29 0 -42.5 18.5t-13.5 41.5q0 26 13 42t33 30q23 16 59.5 27.5t82.5 11.5q41 0 70 -9.5 t48 -27.5q26 -24 34 -58.5t8 -82.5v-278q0 -24 7 -35.5t24 -11.5q14 0 24.5 6t20.5 15l11 -17q-21 -16 -40 -26.5t-51 -10.5q-52 0 -69 27t-17 62q-32 -53 -72.5 -71t-84.5 -18q-65 0 -94.5 32.5t-29.5 86.5zM127 124q0 -46 23 -68.5t57 -22.5q30 0 59 17.5t54 58.5v196 q-15 -22 -46.5 -35t-65 -28.5t-57.5 -42t-24 -75.5z" />
<glyph unicode="b" horiz-adv-x="563" d="M4 751v21q32 -3 62 -3q29 0 55.5 3.5t48.5 10.5v-731q-13 -11 -26.5 -22.5t-26.5 -22.5t-27 -23l-17 7q4 14 5.5 28.5t1.5 29.5v614q0 45 -16 66.5t-60 21.5zM127 99l20 -11q25 -40 62 -59.5t76 -19.5q67 0 100.5 60.5t33.5 187.5q0 81 -13 135t-40 80.5t-69 26.5 q-46 0 -85.5 -41.5t-48.5 -121.5l-12 14q11 85 59.5 132t115.5 47q82 0 136 -67.5t54 -204.5q0 -90 -30.5 -150.5t-81.5 -90.5t-111 -30q-50 0 -96.5 28.5t-69.5 84.5z" />
<glyph unicode="c" horiz-adv-x="486" d="M46 251q0 82 29.5 144.5t82.5 98t121 35.5q32 0 62 -8t54 -24q23 -15 35 -34.5t12 -42.5q0 -27 -15 -41.5t-38 -14.5q-22 0 -38.5 13t-16.5 37q0 23 12.5 37t29.5 18q-10 18 -35.5 30t-54.5 12q-25 0 -50 -12t-46 -39.5t-34 -75t-13 -118.5q0 -88 20 -140t52.5 -74.5 t71.5 -22.5t79 23t66 80l19 -7q-10 -32 -33 -64.5t-60 -53.5t-91 -21q-62 0 -112 32t-79.5 91.5t-29.5 141.5z" />
<glyph unicode="d" horiz-adv-x="581" d="M48 257q0 91 31.5 151.5t83 90.5t111.5 30q44 0 82.5 -21t51.5 -72l-13 -10q-14 42 -43.5 61t-69.5 19q-58 0 -98 -61q-39 -59 -39 -182v-6q0 -81 15.5 -134.5t46 -80t74.5 -26.5q42 0 76 36t41 106l12 -14q-8 -76 -48.5 -117t-109.5 -41q-62 0 -108.5 30t-71 90 t-24.5 151zM318 752v21q32 -3 62 -3q29 0 55.5 3.5t48.5 10.5v-675q0 -45 16.5 -66.5t59.5 -21.5v-21q-31 3 -62 3q-29 0 -55.5 -3t-48.5 -11v675q0 45 -16 66.5t-60 21.5z" />
<glyph unicode="e" horiz-adv-x="506" d="M46 245q0 88 28 151.5t79 98t119 34.5q88 0 137.5 -53.5t49.5 -166.5h-353l-1 19h258v16q0 40 -8 74q-10 42 -31.5 67t-55.5 25q-46 0 -81.5 -46t-42.5 -146l3 -4q-2 -15 -3 -33t-1 -36q0 -68 22 -117t57.5 -74.5t73.5 -25.5q45 0 83 22t64 78l20 -8q-11 -33 -36 -64 t-63 -50.5t-88 -19.5q-72 0 -123.5 33t-79 91.5t-27.5 134.5z" />
<glyph unicode="f" horiz-adv-x="332" d="M26 494v20h80q0 89 11.5 136.5t39.5 81.5q20 23 51 36.5t68 13.5q28 0 49.5 -7.5t37.5 -19.5q15 -12 23 -28t8 -34q0 -23 -15 -38t-38 -15q-22 0 -38.5 14.5t-16.5 39.5q0 21 11.5 34t30.5 17q-3 9 -15.5 15.5t-33.5 6.5q-23 0 -39.5 -10t-25.5 -27q-12 -21 -15 -62.5 t-3 -127.5v-26h107v-20h-107v-391q0 -49 28.5 -65.5t77.5 -16.5v-21q-23 1 -65 2.5t-89 1.5q-34 0 -67.5 -1.5t-50.5 -2.5v21q41 0 58.5 15t17.5 57v401h-80z" />
<glyph unicode="g" horiz-adv-x="528" d="M9 -83q0 35 28 60t76 38l6 -16q-22 -7 -35 -28t-13 -47q0 -46 42.5 -70.5t110.5 -24.5q45 0 88 11.5t71 38.5t28 71q0 33 -23.5 54.5t-92.5 21.5h-74q-32 0 -62 5t-49 21t-19 49q0 34 28 65.5t103 64.5l12 -9q-34 -18 -59 -36.5t-25 -43.5q0 -32 48 -32h125 q62 0 109.5 -27.5t47.5 -90.5q0 -47 -30 -88t-89.5 -66.5t-147.5 -25.5q-53 0 -100 11t-75.5 34.5t-28.5 59.5zM43 371q0 83 50.5 120.5t124.5 37.5t124.5 -37.5t50.5 -120.5q0 -82 -50.5 -120t-124.5 -38t-124.5 38t-50.5 120zM137 371q0 -80 22 -110t59 -30q38 0 59.5 30 t21.5 110t-21.5 110t-59.5 30q-37 0 -59 -30t-22 -110zM344 453q14 34 48 60t71 26q26 0 42 -14.5t16 -43.5q0 -31 -16.5 -43.5t-33.5 -12.5q-15 0 -28 10.5t-15 33.5v5q0 22 14 54l13 -3q-42 -16 -60 -33.5t-33 -45.5z" />
<glyph unicode="h" horiz-adv-x="588" d="M20 0v21q41 0 58.5 15t17.5 57v570q0 45 -16 66.5t-60 21.5v21q32 -3 62 -3q29 0 55.5 3.5t48.5 10.5v-374q26 68 72.5 94t97.5 26q38 0 63.5 -10t42.5 -28q19 -20 27 -50t8 -81v-267q0 -42 17.5 -57t58.5 -15v-21q-17 1 -52 2.5t-68 1.5t-64.5 -1.5t-47.5 -2.5v21 q36 0 51 15t15 57v289q0 31 -5 57t-22.5 42t-53.5 16q-61 0 -100.5 -50.5t-39.5 -130.5v-223q0 -42 15 -57t51 -15v-21q-16 1 -47.5 2.5t-64.5 1.5t-68 -1.5t-52 -2.5z" />
<glyph unicode="i" horiz-adv-x="293" d="M29 0v21q41 0 58.5 15t17.5 57v313q0 45 -16 66.5t-60 21.5v21q32 -3 62 -3q29 0 55.5 3.5t48.5 10.5v-433q0 -42 17.5 -57t58.5 -15v-21q-17 1 -51.5 2.5t-69.5 1.5q-34 0 -69 -1.5t-52 -2.5zM79 701q0 26 19 45t45 19t45 -19t19 -45t-19 -45t-45 -19t-45 19t-19 45z " />
<glyph unicode="j" horiz-adv-x="267" d="M-26 -173q62 3 93 53.5t31 138.5v387q0 45 -16 66.5t-60 21.5v21q32 -3 62 -3q29 0 55.5 3.5t48.5 10.5v-411q0 -75 -16.5 -138t-55.5 -104q-25 -27 -61.5 -44t-80.5 -17v15zM70 701q0 26 19 45t45 19t45 -19t19 -45t-19 -45t-45 -19t-45 19t-19 45z" />
<glyph unicode="k" horiz-adv-x="550" d="M20 0v21q41 0 58.5 15t17.5 57v571q0 45 -16 66.5t-60 21.5v21q32 -3 62 -3q29 0 55.5 3.5t48.5 10.5v-691q0 -42 15 -57t51 -15v-21q-16 1 -47.5 2.5t-63.5 1.5q-34 0 -69 -1.5t-52 -2.5zM182 267v20q32 4 52 13.5t38 28.5l74 77q32 33 32 52.5t-20.5 28t-53.5 8.5v20 q26 -1 58.5 -2.5t54.5 -1.5q17 0 33 0.5t30 1.5t24 2v-20q-25 -2 -47 -13.5t-43 -33.5l-141 -148l14 28l186 -255q17 -23 32.5 -36t37.5 -16v-21q-11 1 -34.5 2.5t-46.5 1.5q-31 0 -63 -1.5t-48 -2.5v21q20 0 28 10t-3 24l-115 168q-19 27 -34.5 35t-44.5 9z" />
<glyph unicode="l" horiz-adv-x="286" d="M22 0v21q41 0 58.5 15t17.5 57v571q0 45 -16 66.5t-60 21.5v21q32 -3 62 -3q29 0 55.5 3.5t48.5 10.5v-691q0 -42 17.5 -57t58.5 -15v-21q-17 1 -51.5 2.5t-69.5 1.5q-34 0 -69 -1.5t-52 -2.5z" />
<glyph unicode="m" horiz-adv-x="888" d="M29 0v21q41 0 58.5 15t17.5 57v313q0 45 -16 66.5t-60 21.5v21q32 -3 62 -3q29 0 55.5 3.5t48.5 10.5v-118q26 65 71 93t93 28q35 0 61 -10t43 -28q19 -20 26 -52t7 -79v-267q0 -42 17.5 -57t58.5 -15v-21q-17 1 -52 2.5t-68 1.5t-64.5 -1.5t-47.5 -2.5v21q36 0 51 15 t15 57v289q0 31 -4 57t-20 42t-52 16q-39 0 -69.5 -24t-48 -65.5t-17.5 -92.5v-222q0 -42 15 -57t51 -15v-21q-16 1 -47.5 2.5t-64.5 1.5t-68 -1.5t-52 -2.5zM493 409q27 69 73 94.5t94 25.5q35 0 61 -10t43 -28q19 -20 26 -52t7 -79v-267q0 -42 17.5 -57t58.5 -15v-21 q-17 1 -52 2.5t-68 1.5t-64.5 -1.5t-47.5 -2.5v21q36 0 51 15t15 57v289q0 31 -4 57t-20 42t-52 16q-58 0 -96.5 -52t-38.5 -129z" />
<glyph unicode="n" horiz-adv-x="597" d="M29 0v21q41 0 58.5 15t17.5 57v313q0 45 -16 66.5t-60 21.5v21q32 -3 62 -3q29 0 55.5 3.5t48.5 10.5v-118q26 68 72.5 94.5t97.5 26.5q38 0 63.5 -10t42.5 -28q19 -20 27 -50t8 -81v-267q0 -42 17.5 -57t58.5 -15v-21q-17 1 -52 2.5t-68 1.5t-64.5 -1.5t-47.5 -2.5v21 q36 0 51 15t15 57v289q0 31 -5 57t-22.5 42t-53.5 16q-63 0 -101.5 -52.5t-38.5 -129.5v-222q0 -42 15 -57t51 -15v-21q-16 1 -47.5 2.5t-64.5 1.5t-68 -1.5t-52 -2.5z" />
<glyph unicode="o" horiz-adv-x="548" d="M47 257q0 96 30.5 156t82 88t114.5 28q64 0 115 -28t81.5 -88t30.5 -156t-30.5 -155.5t-81.5 -87.5t-115 -28q-63 0 -114.5 28t-82 87.5t-30.5 155.5zM144 257q0 -134 36.5 -192.5t93.5 -58.5t93.5 58.5t36.5 192.5t-36.5 193t-93.5 59t-93.5 -59t-36.5 -193z" />
<glyph unicode="p" horiz-adv-x="581" d="M22 494v21q32 -3 62 -3q29 0 55.5 3.5t48.5 10.5v-614q0 -43 25.5 -57.5t70.5 -14.5v-21q-22 1 -61 2.5t-83 1.5q-31 0 -61.5 -1.5t-46.5 -2.5v21q36 0 51 13t15 49v504q0 45 -16 66.5t-60 21.5zM169 350q11 85 60.5 132t118.5 47q79 0 132.5 -63.5t53.5 -184.5 q0 -72 -23.5 -140t-73.5 -111.5t-132 -43.5q-47 0 -81.5 22t-46.5 53l10 14q14 -28 40.5 -47t66.5 -19q56 0 87 35t43.5 93.5t12.5 129.5q0 80 -13 131t-39 76t-64 25q-49 0 -89 -40.5t-51 -122.5z" />
<glyph unicode="q" horiz-adv-x="563" d="M47 257q0 91 28.5 151.5t77 90.5t108.5 30q62 0 100 -26.5t59 -87.5l-20 11q-19 41 -53 60.5t-78 19.5q-59 0 -92 -61t-33 -188q0 -80 16 -134t47 -80.5t75 -26.5q42 0 77 41t41 121l12 -14q-7 -85 -51.5 -131.5t-107.5 -46.5q-57 0 -104 29.5t-74.5 90t-27.5 151.5z M297 -160q45 0 70.5 14.5t25.5 57.5v535q14 14 27 28t26.5 28t26.5 28l17 -7q-4 -13 -5.5 -28t-1.5 -30v-564q0 -36 15 -49t51 -13v-21q-16 1 -46 2.5t-62 1.5q-43 0 -82.5 -1.5t-61.5 -2.5v21z" />
<glyph unicode="r" horiz-adv-x="445" d="M29 0v21q41 0 58.5 15t17.5 57v313q0 45 -16 66.5t-60 21.5v21q32 -3 62 -3q29 0 55.5 3.5t48.5 10.5v-125q11 29 31.5 58.5t49.5 49.5t64 20q27 0 47.5 -11t32 -28.5t11.5 -39.5q0 -25 -15.5 -44t-41.5 -19q-21 0 -37 13.5t-16 38.5q0 19 10.5 32.5t23.5 21.5 q-7 10 -21 10q-42 0 -73 -31.5t-48.5 -75.5t-17.5 -81v-212q0 -49 28.5 -65.5t77.5 -16.5v-21q-23 1 -65 2.5t-89 1.5q-34 0 -67.5 -1.5t-50.5 -2.5z" />
<glyph unicode="s" horiz-adv-x="447" d="M56 -7q2 32 3 78t1 122h23q7 -56 20 -98t41 -65.5t78 -23.5q30 0 59.5 21t29.5 74q0 44 -32 72t-81 59q-36 23 -67.5 46t-51 52t-19.5 70q0 45 20.5 73.5t54.5 42t73 13.5q40 0 68 -13t41 -24q10 -8 17 -8q18 0 23 44h23q-2 -28 -3 -66.5t-1 -103.5h-23q-6 37 -20.5 72 t-42.5 57.5t-73 22.5q-35 0 -58.5 -19.5t-23.5 -57.5q0 -30 18 -51.5t47 -40t63 -40.5q57 -37 97 -75t40 -100q0 -46 -24 -77t-62.5 -47t-84.5 -16q-22 0 -41.5 3.5t-37.5 10.5q-10 5 -20.5 12t-20.5 15t-18 -0.5t-12 -33.5h-23z" />
<glyph unicode="t" horiz-adv-x="354" d="M4 494v20h96v153q25 1 48 4t42 10v-167h148v-20h-148v-387q0 -47 17 -66t47 -19t52 24.5t38 82.5l20 -5q-10 -58 -39.5 -98t-90.5 -40q-34 0 -56 8.5t-39 24.5q-22 23 -30.5 55t-8.5 85v335h-96z" />
<glyph unicode="u" horiz-adv-x="581" d="M16 494v21q32 -3 62 -3q29 0 55.5 3.5t48.5 10.5v-393q0 -31 4 -57t20 -42t52 -16q59 0 97 52.5t38 128.5v207q0 45 -16 66.5t-60 21.5v21q32 -3 62 -3q29 0 55.5 3.5t48.5 10.5v-418q0 -45 16.5 -66.5t59.5 -21.5v-21q-31 3 -62 3q-29 0 -55.5 -3t-48.5 -11v118 q-25 -65 -70.5 -92.5t-93.5 -27.5q-35 0 -61 10t-43 28q-19 20 -26 52t-7 79v251q0 45 -16 66.5t-60 21.5z" />
<glyph unicode="v" horiz-adv-x="489" d="M-2 494v21q20 -1 41.5 -2.5t46.5 -1.5q31 0 65.5 1t64.5 3v-21q-25 0 -44.5 -3.5t-25.5 -19.5q-1 -4 -1 -10q0 -16 11 -45l125 -309l-6 -5l114 299q11 28 11 47q0 14 -6 23q-14 20 -68 24v20q26 -1 43.5 -2t40.5 -1t41.5 1t34.5 2v-20q-19 -2 -35 -17t-30 -53l-164 -430 h-8h-9l-184 443q-16 39 -31.5 47.5t-26.5 8.5z" />
<glyph unicode="w" horiz-adv-x="770" d="M0 494v21q20 -3 41.5 -4.5t46.5 -1.5q31 0 65.5 2t64.5 4v-21q-25 0 -44 -3.5t-25 -20.5q-2 -5 -2 -12q0 -17 11 -48l104 -298l-7 1l147 406l20 -8l-183 -516h-8h-9l-164 443q-16 40 -31.5 48t-26.5 8zM379 404l23 115h11.5h11.5l156 -413l-8 -6l99 301q9 27 9 45 q-1 16 -7 25q-14 20 -67 24v20q18 -1 31 -1.5t25.5 -1t27.5 -0.5q23 0 41.5 1t34.5 2v-20q-19 -2 -35.5 -16.5t-29.5 -53.5l-145 -430h-8h-9z" />
<glyph unicode="x" horiz-adv-x="519" d="M21 0v20q19 2 39.5 17.5t48.5 52.5l130 171l5 -13l4 -14l-83 -108q-28 -36 -28 -60q0 -22 19 -32q20 -12 55 -14v-20q-17 1 -38 1.5t-40.5 1t-35.5 0.5q-44 0 -76 -3zM23 494v21q10 -1 31 -2.5t40 -1.5q32 0 67 1.5t51 2.5v-21q-19 0 -32 -9t-3 -25l267 -389 q17 -25 30 -35.5t32 -14.5v-21q-10 1 -30.5 2.5t-40.5 1.5q-31 0 -66.5 -1.5t-51.5 -2.5v21q20 0 33 9.5t2 24.5l-267 389q-20 29 -32 38.5t-30 11.5zM275 292l78 109q30 42 30 64q0 26 -57 30v20q26 -1 43.5 -2t40.5 -1q45 0 76 3v-20q-19 -2 -41.5 -19.5t-46.5 -50.5 l-115 -159l-2 6z" />
<glyph unicode="y" horiz-adv-x="504" d="M-4 494v21q22 -3 46 -4.5t52 -1.5q31 0 65.5 2t64.5 4v-21q-25 0 -44.5 -3.5t-24.5 -20.5q-1 -4 -1 -10q0 -18 13 -50l123 -305l-6 -2l114 298q11 28 11 47q0 14 -7 23q-15 20 -68 24v20q26 -1 43.5 -2t40.5 -1t41.5 1t34.5 2v-20q-19 -2 -35 -17t-30 -53l-164 -430h-17 l-184 443q-19 39 -37.5 47.5t-30.5 8.5zM42 -128q0 24 14 38.5t39 14.5q21 0 36 -12t15 -35q0 -17 -8 -28t-19 -17q2 -1 3.5 -1h2.5q27 0 48 18.5t37 59.5l36 93l19 -8l-34 -87q-19 -49 -43 -70q-16 -15 -38 -20.5t-40 -5.5q-19 0 -34.5 7t-24.5 20.5t-9 32.5z" />
<glyph unicode="z" horiz-adv-x="476" d="M38 -5l289 505h-110q-44 0 -73.5 -16t-45 -51.5t-20.5 -93.5h-23q0 65 -1 108.5t-3 71.5q44 -2 91.5 -3t94.5 -1q50 0 102 1.5t100 3.5l-289 -505h110q40 0 69.5 16t47.5 51.5t22 93.5h23q0 -64 1 -108t3 -72q-44 2 -91.5 3t-94.5 1q-50 0 -102 -1.5t-100 -3.5z" />
<glyph unicode="{" horiz-adv-x="304" d="M27 290v18h5q31 2 47 23.5t22.5 73.5t6.5 146q0 88 16 138.5t53.5 71.5t100.5 21v-19q-33 -1 -50 -14.5t-23.5 -58t-6.5 -139.5q0 -90 -20 -141t-52.5 -75.5t-70.5 -35.5q38 -11 70.5 -36t52.5 -75.5t20 -140.5q0 -74 3.5 -117t12 -64.5t24.5 -28t40 -6.5v-19 q-63 0 -100.5 20.5t-53.5 71.5t-16 143q0 94 -6.5 145.5t-22.5 73.5t-47 24h-5z" />
<glyph unicode="|" horiz-adv-x="222" d="M91 -195v1053h40v-1053h-40z" />
<glyph unicode="}" horiz-adv-x="304" d="M26 -169v-19q63 0 100.5 20.5t53.5 71.5t16 143q0 94 6.5 145.5t22.5 73.5t47 24h5v18h-5q-31 2 -47 23.5t-22.5 73.5t-6.5 146q0 88 -16 138.5t-53.5 71.5t-100.5 21v-19q33 -1 50 -14.5t23.5 -58t6.5 -139.5q0 -90 20 -141t52.5 -75.5t70.5 -35.5q-38 -11 -70.5 -36 t-52.5 -75.5t-20 -140.5q0 -74 -3.5 -117t-12 -64.5t-24.5 -28t-40 -6.5z" />
<glyph unicode="~" horiz-adv-x="649" d="M74 259q6 50 47 78t94 28q37 0 68.5 -11.5t61 -27t60 -27t64.5 -11.5q30 0 53.5 13t36.5 45l17 -5q-6 -49 -47 -77.5t-94 -28.5q-37 0 -68.5 11.5t-61 27t-59.5 27t-65 11.5q-30 0 -53 -13t-37 -45z" />
<glyph unicode="&#xa1;" horiz-adv-x="249" d="M61 465q0 26 19 45t45 19t45 -19t19 -45t-19 -45t-45 -19t-45 19t-19 45zM78 -132q0 33 5.5 82.5t13 109t13 125.5t5.5 133h18q0 -67 5.5 -133t13 -125.5t13 -109t5.5 -82.5q0 -30 -13 -43t-33 -13q-19 0 -32.5 13t-13.5 43z" />
<glyph unicode="&#xa2;" horiz-adv-x="474" d="M34 251q0 82 29.5 144.5t82.5 98t121 35.5q32 0 62 -8t54 -24q23 -15 35 -34.5t12 -42.5q0 -27 -15 -41.5t-38 -14.5q-22 0 -38.5 13t-16.5 37q0 23 12.5 37t29.5 18q-10 18 -35.5 30t-54.5 12q-25 0 -50 -12t-46 -39.5t-34 -75t-13 -118.5q0 -88 20 -140t52.5 -74.5 t71.5 -22.5t79 23t66 80l19 -7q-10 -32 -33 -64.5t-60 -53.5t-91 -21q-62 0 -112 32t-79.5 91.5t-29.5 141.5zM243 9h22v-190h-22v190zM243 520v188h22v-188h-22z" />
<glyph unicode="&#xa3;" horiz-adv-x="602" d="M35 -4q0 10 13.5 25t34 29.5t42.5 22.5q5 23 7.5 47.5t3 57.5t0.5 80v181q0 82 20 149.5t68.5 107.5t133.5 40q32 0 55 -7.5t39 -19.5q15 -12 22.5 -26.5t7.5 -28.5q0 -22 -14 -35.5t-33 -13.5q-17 0 -31.5 12.5t-14.5 32.5q0 34 33 47q-2 10 -21.5 17t-40.5 7 q-48 0 -75 -21.5t-38.5 -58t-14.5 -82.5t-3 -94v-148q0 -48 -7.5 -86t-22 -72t-35.5 -71q20 9 40.5 14.5t45.5 5.5q35 0 67.5 -11.5t66 -22.5t71.5 -11q36 0 52 17.5t16 39.5q0 35 -23.5 57t-61.5 29l4 16q48 -7 88 -38.5t40 -86.5q0 -42 -27.5 -76.5t-81.5 -34.5 q-39 0 -72.5 17t-65 37.5t-64.5 31.5q-10 4 -22.5 6t-26.5 2q-28 0 -55 -10q-23 -40 -50.5 -62t-53.5 -22q-7 0 -11.5 1.5t-4.5 8.5zM59 297v20h315v-20h-315zM59 397v20h315v-20h-315z" />
<glyph unicode="&#xa4;" horiz-adv-x="535" d="M77 138l43 43q-19 24 -30.5 54.5t-11.5 64.5q0 67 43 120l-44 44l28 28l44 -44q24 20 54.5 31t64.5 11t64 -11.5t55 -31.5l45 45l28 -28l-45 -45q20 -25 31 -55t11 -64t-11 -64.5t-31 -54.5l44 -43l-28 -29l-44 44q-25 -19 -55 -30.5t-64 -11.5q-69 0 -119 41l-43 -43z M119 300q0 -41 20.5 -76t54.5 -55.5t74 -20.5q41 0 74.5 20.5t53.5 55.5t20 76t-20 76t-53.5 56t-74.5 21t-75 -21t-54 -55.5t-20 -76.5z" />
<glyph unicode="&#xa5;" horiz-adv-x="647" d="M27 687v21q20 -1 41.5 -2t46.5 -1q33 0 70.5 0.5t69.5 2.5v-21q-25 0 -44 -6t-25 -22t9 -45l169 -324l-8 -6l133 265q28 55 27.5 85t-23.5 41.5t-65 12.5v20q29 -1 59 -2t56 -1t43 1t32 2v-20q-19 -4 -38 -24.5t-42 -64.5l-202 -400h-17l-234 432q-20 37 -33.5 46.5 t-24.5 9.5zM148 176v20h373v-20h-373zM148 276v20h373v-20h-373zM207 0v20q34 2 51.5 8t23.5 24t6 54v205l54 -62l39 55v-198q0 -36 6 -54t23.5 -24t51.5 -8v-20q-23 2 -57.5 2.5t-69.5 0.5q-39 0 -73 -0.5t-55 -2.5z" />
<glyph unicode="&#xa6;" horiz-adv-x="224" d="M92 -195v521h40v-521h-40zM92 384v474h40v-474h-40z" />
<glyph unicode="&#xa7;" horiz-adv-x="508" d="M41 312q0 50 27 96t100 83l11 -12q-44 -21 -64 -52.5t-20 -64.5t20 -61.5t53 -54.5t71 -52q52 -35 94 -67.5t66.5 -70t24.5 -87.5q0 -46 -21.5 -81.5t-61 -55.5t-93.5 -20q-30 0 -52 5.5t-37 11.5q-36 15 -56.5 39.5t-20.5 50.5q0 22 14 38t39 16q23 0 39 -14.5t16 -38.5 q0 -17 -10 -32t-33 -21q6 -14 23.5 -22t38.5 -11t36 -3q41 0 64.5 15.5t34 38.5t10.5 45q0 40 -25 72t-63.5 60t-77.5 55q-48 33 -80.5 61.5t-49.5 60.5t-17 73zM85 625q0 47 21.5 82t61.5 55t93 20q30 0 52 -5.5t37 -11.5q36 -15 56.5 -39.5t20.5 -50.5q0 -22 -13.5 -38 t-39.5 -16q-22 0 -38.5 14.5t-16.5 38.5q0 17 10 32t33 21q-10 22 -42.5 29t-54.5 7q-41 0 -65.5 -15.5t-34.5 -38t-10 -45.5q0 -39 25.5 -71.5t63.5 -60.5t77 -55q48 -33 81 -61.5t49.5 -60t16.5 -73.5q0 -49 -28 -94.5t-101 -82.5l-9 10q44 23 64 53.5t20 63.5 q0 34 -20 62t-53 54t-71 52q-52 36 -94 68t-66.5 69.5t-24.5 87.5z" />
<glyph unicode="&#xa8;" horiz-adv-x="428" d="M50 685q0 23 17 40.5t41 17.5q23 0 40.5 -17.5t17.5 -40.5q0 -24 -17.5 -41t-40.5 -17q-24 0 -41 17t-17 41zM262 685q0 23 17 40.5t41 17.5q23 0 40.5 -17.5t17.5 -40.5q0 -24 -17.5 -41t-40.5 -17q-24 0 -41 17t-17 41z" />
<glyph unicode="&#xa9;" horiz-adv-x="894" d="M49 384q0 83 31 155t85.5 126.5t127 85.5t154.5 31q83 0 155 -31t126.5 -85.5t85.5 -126.5t31 -155q0 -82 -31 -154.5t-85.5 -127t-126.5 -85.5t-155 -31q-82 0 -154.5 31t-127 85.5t-85.5 127t-31 154.5zM89 384q0 -76 28 -142t77 -116.5t114 -79t139 -28.5t139 28.5 t114 79t77 116.5t28 142t-28 142t-77 116.5t-114 79t-139 28.5t-139 -28.5t-114 -79t-77 -116.5t-28 -142zM230 378q0 82 29.5 144.5t82.5 98t122 35.5q34 0 65.5 -9t54.5 -26q20 -13 31 -32t11 -42q0 -27 -15 -41.5t-38 -14.5q-22 0 -38.5 14.5t-16.5 39.5q0 21 11.5 34 t30.5 17q-10 18 -35.5 30t-54.5 12q-22 0 -44 -9t-42 -30q-16 -18 -29 -46t-20.5 -68.5t-7.5 -94.5q0 -86 20 -137.5t52.5 -74t70.5 -22.5q27 0 53.5 10t51 32.5t41.5 60.5l19 -7q-10 -32 -33 -64.5t-60 -53.5t-90 -21q-62 0 -112.5 32t-80 91.5t-29.5 141.5z" />
<glyph unicode="&#xaa;" horiz-adv-x="463" d="M57 438q0 43 37 65.5t93 43.5q28 11 54 24t26 32v18q0 45 -18 63.5t-50 18.5q-16 0 -36.5 -5t-37.5 -16q14 -4 24 -16t10 -31t-13.5 -31.5t-30.5 -12.5q-22 0 -35 12.5t-13 32.5q0 22 14 37.5t34 25.5q23 11 49 17t61 6q65 0 93.5 -30t28.5 -97v-163q0 -21 6 -29t19 -8 q24 0 41 17l11 -15q-16 -16 -38 -26.5t-52 -10.5q-37 0 -51 12.5t-16 34.5q-25 -25 -55 -36t-62 -11q-34 0 -63.5 19t-29.5 59zM139 456q0 -27 15 -44t40 -17q38 0 73 32v145q-4 -8 -15 -15.5t-41 -21.5q-37 -16 -54.5 -34.5t-17.5 -44.5z" />
<glyph unicode="&#xab;" horiz-adv-x="502" d="M32 257v1q80 44 134.5 111.5t95.5 159.5l17 -7q-24 -65 -51 -112.5t-56.5 -83t-64.5 -65.5q35 -30 64.5 -67t56.5 -86t51 -115l-17 -7q-41 92 -95.5 159.5t-134.5 111.5zM207 257v1q80 44 134.5 111.5t95.5 159.5l17 -7q-24 -65 -51 -112.5t-56.5 -83t-64.5 -65.5 q35 -30 64.5 -67t56.5 -86t51 -115l-17 -7q-41 92 -95.5 159.5t-134.5 111.5z" />
<glyph unicode="&#xac;" horiz-adv-x="656" d="M82 340v30h501v-205h-36v175h-465z" />
<glyph unicode="&#xad;" horiz-adv-x="499" />
<glyph unicode="&#xae;" horiz-adv-x="678" d="M60 503q0 77 37.5 140.5t101 101t140.5 37.5t140.5 -37.5t101 -101t37.5 -140.5t-37.5 -140.5t-101 -101t-140.5 -37.5t-140.5 37.5t-101 101t-37.5 140.5zM102 503q0 -67 32 -123.5t85.5 -90t119.5 -33.5t120 33.5t85.5 90t31.5 123.5q0 68 -31.5 124t-85.5 89.5 t-120 33.5t-119.5 -33.5t-85.5 -89.5t-32 -124zM214 352v15q14 2 18.5 8t4.5 29v219q0 24 -4.5 30.5t-18.5 7.5v15q9 -1 22 -1h26q28 0 52 0.5t34 0.5q57 0 86.5 -20.5t29.5 -58.5q0 -20 -11 -39.5t-41 -33t-87 -16.5l-60 -3v8v8h53q53 0 68.5 19t15.5 47q0 38 -15.5 56 t-54.5 18q-24 0 -31 -6.5t-7 -26.5v-224q0 -23 4.5 -29t18.5 -8v-15q-10 0 -23.5 0.5t-27.5 0.5q-16 0 -29.5 -0.5t-22.5 -0.5zM270 520q34 0 48.5 -1t22 -2.5t18.5 -3.5q47 -4 64.5 -18.5t22.5 -40.5l12 -57q3 -13 5.5 -23t12.5 -10q8 0 12 8l10 -7q-6 -12 -16.5 -16.5 t-27.5 -4.5q-26 0 -38 10t-17 31l-17 74q-4 20 -12.5 30t-30 13t-67.5 3z" />
<glyph unicode="&#xaf;" horiz-adv-x="412" d="M50 687v25h312v-25h-312z" />
<glyph unicode="&#xb0;" horiz-adv-x="333" d="M45 700q0 56 36.5 88t84.5 32q49 0 85.5 -32t36.5 -88t-36.5 -88.5t-85.5 -32.5q-48 0 -84.5 32.5t-36.5 88.5zM70 699q0 -52 31 -77.5t65 -25.5t65.5 25.5t31.5 77.5q0 51 -31.5 77.5t-65.5 26.5t-65 -26.5t-31 -77.5z" />
<glyph unicode="&#xb1;" horiz-adv-x="597" d="M43 340v30h233v236h36v-236h232v-30h-232v-235h-36v235h-233zM53 0v30h501v-30h-501z" />
<glyph unicode="&#xb2;" horiz-adv-x="338" d="M35 438v20q22 19 52 40.5t58.5 47.5t47 56t18.5 65q0 29 -17 41.5t-48 12.5q-61 0 -95 -54l-15 8q17 31 51 55.5t87 24.5q44 0 72 -18.5t28 -56.5q0 -31 -17.5 -56t-43.5 -46.5t-53.5 -42t-47.5 -41.5h132q24 0 32 9t15 25l17 -3q-7 -26 -10.5 -48.5t-4.5 -41.5 q-9 2 -18.5 2.5t-19.5 0.5h-220z" />
<glyph unicode="&#xb3;" horiz-adv-x="324" d="M28 676q17 31 51 55.5t89 24.5q45 0 73 -19t28 -54q0 -34 -26.5 -58.5t-66.5 -35.5q46 -1 81 -23.5t35 -66.5q0 -35 -23 -63t-61.5 -47.5t-84.5 -30t-91 -10.5v17q52 2 97 20t73.5 48t28.5 66q0 35 -20 56.5t-53 22.5q-11 -5 -19.5 -9.5t-16.5 -4.5q-16 0 -16 12 q0 11 13 13t31 1q34 14 45 36t11 38q0 26 -18.5 42t-49.5 16q-29 0 -53.5 -13.5t-41.5 -40.5z" />
<glyph unicode="&#xb4;" horiz-adv-x="283" d="M50 608q31 49 49.5 84t31.5 61t28 45q15 20 31.5 22t28.5 -7q12 -10 13.5 -26t-13.5 -36q-15 -19 -37 -38t-51.5 -45.5t-69.5 -68.5z" />
<glyph unicode="&#xb6;" horiz-adv-x="645" d="M35 360q0 102 42.5 181t122.5 123.5t193 44.5q59 0 110.5 -2.5t100.5 1.5v-19q-49 -2 -63 -18.5t-14 -49.5v-696q0 -36 6 -54t23.5 -24t51.5 -8v-20q-23 2 -57.5 2.5t-69.5 0.5q-45 0 -84.5 -0.5t-63.5 -2.5v20q63 2 82 22.5t19 73.5v52q-147 0 -234.5 49t-126 133.5 t-38.5 190.5zM124 351q0 -2 38 -5.5t101.5 -6t140.5 -2.5q1 -81 7.5 -146.5t13.5 -104t10 -38.5v32.5v86.5v118.5v129.5v119v87.5v34.5q-3 0 -10 -40t-13.5 -105.5t-7.5 -144.5q-77 0 -140.5 -3t-101.5 -6.5t-38 -5.5z" />
<glyph unicode="&#xb7;" horiz-adv-x="264" d="M68 268q0 26 19 45t45 19t45 -19t19 -45t-19 -45t-45 -19t-45 19t-19 45z" />
<glyph unicode="&#xb8;" horiz-adv-x="296" d="M50 -177l4 18q5 -1 15.5 -2t22.5 -1q29 0 59.5 9t30.5 36q0 28 -42 28q-8 0 -23 -1.5t-26 -5.5l34 102h27l-26 -78q13 3 28 5t31 2q28 0 44.5 -12t16.5 -35q0 -28 -18.5 -44.5t-44.5 -24t-50 -7.5q-28 0 -48.5 3.5t-34.5 7.5z" />
<glyph unicode="&#xb9;" horiz-adv-x="263" d="M34 701v21q50 1 83.5 8t60.5 23v-246q0 -29 15.5 -39t51.5 -10v-21q-14 1 -41 1.5t-56 0.5q-32 0 -61.5 -0.5t-45.5 -1.5v21q35 0 54.5 10t19.5 39v129q0 44 -17 54.5t-64 10.5z" />
<glyph unicode="&#xba;" horiz-adv-x="454" d="M50 541q0 60 26 100t66.5 60.5t84.5 20.5t84.5 -20.5t66.5 -60.5t26 -100q0 -59 -26 -99.5t-66.5 -61t-84.5 -20.5t-84.5 20.5t-66.5 61t-26 99.5zM133 541q0 -87 28 -125t66 -38t66 38t28 125t-28 125t-66 38t-66 -38t-28 -125z" />
<glyph unicode="&#xbb;" horiz-adv-x="501" d="M48 -8q25 66 51.5 113t56.5 82.5t64 65.5q-34 30 -64 67t-56.5 86.5t-51.5 114.5l17 7q41 -92 96 -159.5t134 -111.5v-1q-79 -44 -134 -111.5t-96 -159.5zM223 -8q25 66 51.5 113t56.5 82.5t64 65.5q-34 30 -64 67t-56.5 86.5t-51.5 114.5l17 7q41 -92 96 -159.5 t134 -111.5v-1q-79 -44 -134 -111.5t-96 -159.5z" />
<glyph unicode="&#xbc;" horiz-adv-x="693" d="M50 701v21q50 1 83.5 8t60.5 23v-246q0 -29 15.5 -39t51.5 -10v-21q-14 1 -41 1.5t-56 0.5q-32 0 -61.5 -0.5t-45.5 -1.5v21q35 0 54.5 10t19.5 39v129q0 44 -17 54.5t-64 10.5zM64 -42l585 866l19 -13l-585 -866zM299 18v21l229 264l8 -15l-208 -241l-4 12h233 q24 0 32 9t15 25l17 -3q-4 -16 -7 -28.5t-4.5 -24t-2.5 -22.5q-9 2 -18.5 2.5t-19.5 0.5h-270zM493 -99v350l35 52h21v-402h-56z" />
<glyph unicode="&#xbd;" horiz-adv-x="700" d="M48 -42l585 866l19 -13l-585 -866zM58 701v21q50 1 83.5 8t60.5 23v-246q0 -29 15.5 -39t51.5 -10v-21q-14 1 -41 1.5t-56 0.5q-32 0 -61.5 -0.5t-45.5 -1.5v21q35 0 54.5 10t19.5 39v129q0 44 -17 54.5t-64 10.5zM388 1v20q22 19 52 40.5t58.5 47.5t47 56t18.5 65 q0 29 -17 41.5t-48 12.5q-61 0 -95 -54l-15 8q17 31 51 55.5t87 24.5q44 0 72 -18.5t28 -56.5q0 -31 -17.5 -56t-43.5 -46.5t-53.5 -42t-47.5 -41.5h132q24 0 32 9t15 25l17 -3q-7 -26 -10.5 -48.5t-4.5 -41.5q-9 2 -18.5 2.5t-19.5 0.5h-220z" />
<glyph unicode="&#xbe;" horiz-adv-x="744" d="M51 676q17 31 51 55.5t89 24.5q45 0 73 -19t28 -54q0 -34 -26.5 -58.5t-66.5 -35.5q46 -1 81 -23.5t35 -66.5q0 -35 -23 -63t-61.5 -47.5t-84.5 -30t-91 -10.5v17q52 2 97 20t73.5 48t28.5 66q0 35 -20 56.5t-53 22.5q-11 -5 -19.5 -9.5t-16.5 -4.5q-16 0 -16 12 q0 11 13 13t31 1q34 14 45 36t11 38q0 26 -18.5 42t-49.5 16q-29 0 -53.5 -13.5t-41.5 -40.5zM111 -42l585 866l19 -13l-585 -866zM346 18v21l229 264l8 -15l-208 -241l-4 12h233q24 0 32 9t15 25l17 -3q-4 -16 -7 -28.5t-4.5 -24t-2.5 -22.5q-9 2 -18.5 2.5t-19.5 0.5h-270 zM540 -99v350l35 52h21v-402h-56z" />
<glyph unicode="&#xbf;" horiz-adv-x="453" d="M31 -18q0 81 62.5 135t162.5 77v126h20v-135q-66 -23 -99.5 -51.5t-45 -62t-11.5 -70.5q0 -89 39 -129t101 -40q24 0 52.5 5t45.5 21q-19 4 -30.5 16.5t-11.5 34.5q0 26 16.5 40t38.5 14q23 0 38 -15t15 -38q0 -21 -12.5 -38.5t-34.5 -30.5q-20 -12 -53 -20.5t-83 -8.5 q-94 0 -152 45.5t-58 124.5zM201 466q0 26 19 45t45 19t45 -19t19 -45t-19 -45t-45 -19t-45 19t-19 45z" />
<glyph unicode="&#xc0;" d="M-7 0v20q20 5 41 23.5t38 63.5l235 606h8h8l244 -629q15 -38 34 -50.5t35 -13.5v-20q-20 2 -49 2.5t-58 0.5q-39 0 -73 -0.5t-55 -2.5v20q51 2 65 17.5t-6 66.5l-186 497l16 13l-174 -452q-21 -54 -20 -84.5t23 -43.5t64 -14v-20q-28 2 -58.5 2.5t-56.5 0.5 q-25 0 -42.5 -0.5t-32.5 -2.5zM147 268l10 20h288v-20h-298zM148 890.5q-4 15.5 4 28.5t24.5 16.5t36.5 -9.5q21 -13 42 -33t50.5 -46.5t75.5 -61.5l-7 -13q-51 26 -88.5 40.5t-64 25t-48.5 23.5q-21 14 -25 29.5z" />
<glyph unicode="&#xc1;" d="M-7 0v20q20 5 41 23.5t38 63.5l235 606h8h8l244 -629q15 -38 34 -50.5t35 -13.5v-20q-20 2 -49 2.5t-58 0.5q-39 0 -73 -0.5t-55 -2.5v20q51 2 65 17.5t-6 66.5l-186 497l16 13l-174 -452q-21 -54 -20 -84.5t23 -43.5t64 -14v-20q-28 2 -58.5 2.5t-56.5 0.5 q-25 0 -42.5 -0.5t-32.5 -2.5zM147 268l10 20h288v-20h-298zM253 785q46 35 75.5 61.5t50.5 46.5t42 33q20 13 36.5 9.5t24.5 -16.5t4 -28.5t-25 -29.5q-21 -13 -48.5 -23.5t-64 -25t-88.5 -40.5z" />
<glyph unicode="&#xc2;" d="M-7 0v20q20 5 41 23.5t38 63.5l235 606h8h8l244 -629q15 -38 34 -50.5t35 -13.5v-20q-20 2 -49 2.5t-58 0.5q-39 0 -73 -0.5t-55 -2.5v20q51 2 65 17.5t-6 66.5l-186 497l16 13l-174 -452q-21 -54 -20 -84.5t23 -43.5t64 -14v-20q-28 2 -58.5 2.5t-56.5 0.5 q-25 0 -42.5 -0.5t-32.5 -2.5zM118 784q65 23 114.5 58.5t72.5 73.5h18q23 -38 72.5 -73.5t114.5 -58.5l-5 -14q-60 13 -118 32t-93 38q-28 -19 -75.5 -38t-95.5 -32zM147 268l10 20h288v-20h-298z" />
<glyph unicode="&#xc3;" d="M-7 0v20q20 5 41 23.5t38 63.5l235 606h8h8l244 -629q15 -38 34 -50.5t35 -13.5v-20q-20 2 -49 2.5t-58 0.5q-39 0 -73 -0.5t-55 -2.5v20q51 2 65 17.5t-6 66.5l-186 497l16 13l-174 -452q-21 -54 -20 -84.5t23 -43.5t64 -14v-20q-28 2 -58.5 2.5t-56.5 0.5 q-25 0 -42.5 -0.5t-32.5 -2.5zM122 796q5 50 37 78t74 28q28 0 52 -11.5t47 -27t46 -27t49 -11.5q20 0 36.5 12t25.5 44l15 -3q-4 -49 -36.5 -77.5t-74.5 -28.5q-28 0 -52 11.5t-47 27t-46 27t-49 11.5q-21 0 -37 -12t-25 -44zM147 268l10 20h288v-20h-298z" />
<glyph unicode="&#xc4;" d="M-7 0v20q20 5 41 23.5t38 63.5l235 606h8h8l244 -629q15 -38 34 -50.5t35 -13.5v-20q-20 2 -49 2.5t-58 0.5q-39 0 -73 -0.5t-55 -2.5v20q51 2 65 17.5t-6 66.5l-186 497l16 13l-174 -452q-21 -54 -20 -84.5t23 -43.5t64 -14v-20q-28 2 -58.5 2.5t-56.5 0.5 q-25 0 -42.5 -0.5t-32.5 -2.5zM147 268l10 20h288v-20h-298zM150 830q0 23 17 40.5t41 17.5q23 0 40.5 -17.5t17.5 -40.5q0 -24 -17.5 -41t-40.5 -17q-24 0 -41 17t-17 41zM362 830q0 23 17 40.5t41 17.5q23 0 40.5 -17.5t17.5 -40.5q0 -24 -17.5 -41t-40.5 -17 q-24 0 -41 17t-17 41z" />
<glyph unicode="&#xc5;" d="M-7 0v20q20 5 41 23.5t38 63.5l235 606h8h8l244 -629q15 -38 34 -50.5t35 -13.5v-20q-20 2 -49 2.5t-58 0.5q-39 0 -73 -0.5t-55 -2.5v20q51 2 65 17.5t-6 66.5l-186 497l16 13l-174 -452q-21 -54 -20 -84.5t23 -43.5t64 -14v-20q-28 2 -58.5 2.5t-56.5 0.5 q-25 0 -42.5 -0.5t-32.5 -2.5zM147 268l10 20h288v-20h-298zM218 834q0 42 29 66.5t67 24.5q39 0 68 -24.5t29 -66.5q0 -43 -29 -67.5t-68 -24.5q-38 0 -67 24.5t-29 67.5zM246 833q0 -35 22 -52.5t46 -17.5q25 0 47 17.5t22 52.5t-22 53t-47 18q-24 0 -46 -18t-22 -53z" />
<glyph unicode="&#xc6;" horiz-adv-x="854" d="M-10 0v20q16 1 32 15t37 49l417 688h24l-403 -668q-28 -46 -14 -64t65 -20v-20q-15 2 -39.5 2.5t-51.5 0.5q-17 0 -35.5 -0.5t-31.5 -2.5zM231 346l10 20h210v-20h-220zM337 688v20q45 -1 95 -2t94 -1h71q41 0 94 0.5t95 2.5q-4 -35 -5.5 -68t-1.5 -50q0 -18 1 -34.5 t2 -27.5h-23q-5 59 -13.5 93.5t-29 49t-61.5 14.5h-63q-34 0 -51.5 -5.5t-23.5 -23t-6 -54.5v-496q0 -36 6 -54t23.5 -23.5t51.5 -5.5h73q49 0 71 17t30 55.5t13 104.5h23q-3 -27 -3 -72q0 -19 1.5 -54.5t5.5 -73.5q-46 2 -104.5 2.5t-104.5 0.5h-65.5t-86.5 -0.5t-88 -2.5 v20q26 2 39 8t17.5 24t4.5 54v496q0 37 -6 54.5t-23.5 24t-51.5 7.5zM481 346v10v10h170v-10v-10h-170zM584 346v20q35 0 49 19.5t17.5 46t6.5 46.5h23q-4 -49 -3.5 -74.5t0.5 -47.5t1 -47t5 -75h-23q-3 27 -7.5 53t-19 42.5t-49.5 16.5z" />
<glyph unicode="&#xc7;" horiz-adv-x="688" d="M53 348q0 112 41 196t112.5 131t164.5 47q66 0 108.5 -19.5t75.5 -45.5q20 -15 30.5 -3.5t14.5 54.5h23q-2 -37 -3 -90t-1 -140h-23q-7 43 -13 68.5t-14.5 43.5t-22.5 36q-31 41 -78 59.5t-99 18.5q-49 0 -88.5 -24.5t-68 -70.5t-44 -111t-15.5 -146q0 -84 17 -148.5 t47.5 -108.5t72 -66.5t89.5 -22.5q45 0 94 18t77 58q22 29 30.5 63t15.5 95h23q0 -91 1 -146.5t3 -93.5h-23q-4 43 -13.5 54t-31.5 -3q-37 -26 -78.5 -45.5t-106.5 -19.5q-95 0 -166.5 43t-111 124t-39.5 195zM283 -177l4 18q5 -1 15.5 -2t22.5 -1q29 0 59.5 9t30.5 36 q0 14 -11 21t-31 7q-8 0 -23 -1.5t-26 -5.5l34 101h27l-26 -77q13 3 28 5t31 2q28 0 44.5 -12t16.5 -35q0 -28 -18.5 -44.5t-44.5 -24t-50 -7.5q-28 0 -48.5 3.5t-34.5 7.5z" />
<glyph unicode="&#xc8;" horiz-adv-x="609" d="M42 0v20q34 2 51.5 8t23.5 24t6 54v496q0 37 -6 54.5t-23.5 24t-51.5 7.5v20q49 -1 105 -2t105.5 -1h79.5q46 0 104.5 0.5t104.5 2.5q-4 -35 -5.5 -68t-1.5 -50q0 -18 1 -34.5t2 -27.5h-23q-6 59 -17 93.5t-37.5 49t-79.5 14.5h-83q-34 0 -51.5 -5.5t-23.5 -23t-6 -54.5 v-496q0 -36 6 -54t23.5 -23.5t51.5 -5.5h73q63 0 95.5 17t47 55.5t21.5 104.5h23q-3 -27 -3 -72q0 -19 1.5 -54.5t5.5 -73.5q-51 2 -115 2.5t-114 0.5h-79.5t-105.5 -0.5t-105 -2.5zM140 890.5q-4 15.5 4 28.5t24.5 16.5t36.5 -9.5q21 -13 42 -33t50.5 -46.5t75.5 -61.5 l-7 -13q-51 26 -88.5 40.5t-64 25t-48.5 23.5q-21 14 -25 29.5zM186 346v10v10h183v-10v-10h-183zM282 346v20q44 0 61.5 23t22.5 54t9 55h23q-4 -57 -3.5 -87t0.5 -55t1 -55t5 -87h-23q-4 32 -9.5 62.5t-24 50t-62.5 19.5z" />
<glyph unicode="&#xc9;" horiz-adv-x="609" d="M42 0v20q34 2 51.5 8t23.5 24t6 54v496q0 37 -6 54.5t-23.5 24t-51.5 7.5v20q49 -1 105 -2t105.5 -1h79.5q46 0 104.5 0.5t104.5 2.5q-4 -35 -5.5 -68t-1.5 -50q0 -18 1 -34.5t2 -27.5h-23q-6 59 -17 93.5t-37.5 49t-79.5 14.5h-83q-34 0 -51.5 -5.5t-23.5 -23t-6 -54.5 v-496q0 -36 6 -54t23.5 -23.5t51.5 -5.5h73q63 0 95.5 17t47 55.5t21.5 104.5h23q-3 -27 -3 -72q0 -19 1.5 -54.5t5.5 -73.5q-51 2 -115 2.5t-114 0.5h-79.5t-105.5 -0.5t-105 -2.5zM186 346v10v10h183v-10v-10h-183zM245 785q46 35 75.5 61.5t50.5 46.5t42 33 q20 13 36.5 9.5t24.5 -16.5t4 -28.5t-25 -29.5q-21 -13 -48.5 -23.5t-64 -25t-88.5 -40.5zM282 346v20q44 0 61.5 23t22.5 54t9 55h23q-4 -57 -3.5 -87t0.5 -55t1 -55t5 -87h-23q-4 32 -9.5 62.5t-24 50t-62.5 19.5z" />
<glyph unicode="&#xca;" horiz-adv-x="609" d="M42 0v20q34 2 51.5 8t23.5 24t6 54v496q0 37 -6 54.5t-23.5 24t-51.5 7.5v20q49 -1 105 -2t105.5 -1h79.5q46 0 104.5 0.5t104.5 2.5q-4 -35 -5.5 -68t-1.5 -50q0 -18 1 -34.5t2 -27.5h-23q-6 59 -17 93.5t-37.5 49t-79.5 14.5h-83q-34 0 -51.5 -5.5t-23.5 -23t-6 -54.5 v-496q0 -36 6 -54t23.5 -23.5t51.5 -5.5h73q63 0 95.5 17t47 55.5t21.5 104.5h23q-3 -27 -3 -72q0 -19 1.5 -54.5t5.5 -73.5q-51 2 -115 2.5t-114 0.5h-79.5t-105.5 -0.5t-105 -2.5zM110 784q65 23 114.5 58.5t72.5 73.5h18q23 -38 72.5 -73.5t114.5 -58.5l-5 -14 q-60 13 -118 32t-93 38q-28 -19 -75.5 -38t-95.5 -32zM186 346v10v10h183v-10v-10h-183zM282 346v20q44 0 61.5 23t22.5 54t9 55h23q-4 -57 -3.5 -87t0.5 -55t1 -55t5 -87h-23q-4 32 -9.5 62.5t-24 50t-62.5 19.5z" />
<glyph unicode="&#xcb;" horiz-adv-x="609" d="M42 0v20q34 2 51.5 8t23.5 24t6 54v496q0 37 -6 54.5t-23.5 24t-51.5 7.5v20q49 -1 105 -2t105.5 -1h79.5q46 0 104.5 0.5t104.5 2.5q-4 -35 -5.5 -68t-1.5 -50q0 -18 1 -34.5t2 -27.5h-23q-6 59 -17 93.5t-37.5 49t-79.5 14.5h-83q-34 0 -51.5 -5.5t-23.5 -23t-6 -54.5 v-496q0 -36 6 -54t23.5 -23.5t51.5 -5.5h73q63 0 95.5 17t47 55.5t21.5 104.5h23q-3 -27 -3 -72q0 -19 1.5 -54.5t5.5 -73.5q-51 2 -115 2.5t-114 0.5h-79.5t-105.5 -0.5t-105 -2.5zM142 830q0 23 17 40.5t41 17.5q23 0 40.5 -17.5t17.5 -40.5q0 -24 -17.5 -41t-40.5 -17 q-24 0 -41 17t-17 41zM186 346v10v10h183v-10v-10h-183zM282 346v20q44 0 61.5 23t22.5 54t9 55h23q-4 -57 -3.5 -87t0.5 -55t1 -55t5 -87h-23q-4 32 -9.5 62.5t-24 50t-62.5 19.5zM354 830q0 23 17 40.5t41 17.5q23 0 40.5 -17.5t17.5 -40.5q0 -24 -17.5 -41t-40.5 -17 q-24 0 -41 17t-17 41z" />
<glyph unicode="&#xcc;" horiz-adv-x="339" d="M4 890.5q-4 15.5 4 28.5t24.5 16.5t36.5 -9.5q21 -13 42 -33t50.5 -46.5t75.5 -61.5l-7 -13q-51 26 -88.5 40.5t-64 25t-48.5 23.5q-21 14 -25 29.5zM42 0v20q34 2 51.5 8t23.5 24t6 54v496q0 37 -6 54.5t-23.5 24t-51.5 7.5v20q21 -1 55 -2t73 -1q35 0 69.5 1t57.5 2 v-20q-34 -1 -51.5 -7.5t-23.5 -24t-6 -54.5v-496q0 -36 6 -54t23.5 -24t51.5 -8v-20q-23 2 -57.5 2.5t-69.5 0.5q-39 0 -73 -0.5t-55 -2.5z" />
<glyph unicode="&#xcd;" horiz-adv-x="339" d="M42 0v20q34 2 51.5 8t23.5 24t6 54v496q0 37 -6 54.5t-23.5 24t-51.5 7.5v20q21 -1 55 -2t73 -1q35 0 69.5 1t57.5 2v-20q-34 -1 -51.5 -7.5t-23.5 -24t-6 -54.5v-496q0 -36 6 -54t23.5 -24t51.5 -8v-20q-23 2 -57.5 2.5t-69.5 0.5q-39 0 -73 -0.5t-55 -2.5zM109 785 q46 35 75.5 61.5t50.5 46.5t42 33q20 13 36.5 9.5t24.5 -16.5t4 -28.5t-25 -29.5q-21 -13 -48.5 -23.5t-64 -25t-88.5 -40.5z" />
<glyph unicode="&#xce;" horiz-adv-x="339" d="M-26 784q65 23 114.5 58.5t72.5 73.5h18q23 -38 72.5 -73.5t114.5 -58.5l-5 -14q-60 13 -118 32t-93 38q-28 -19 -75.5 -38t-95.5 -32zM42 0v20q34 2 51.5 8t23.5 24t6 54v496q0 37 -6 54.5t-23.5 24t-51.5 7.5v20q21 -1 55 -2t73 -1q35 0 69.5 1t57.5 2v-20 q-34 -1 -51.5 -7.5t-23.5 -24t-6 -54.5v-496q0 -36 6 -54t23.5 -24t51.5 -8v-20q-23 2 -57.5 2.5t-69.5 0.5q-39 0 -73 -0.5t-55 -2.5z" />
<glyph unicode="&#xcf;" horiz-adv-x="339" d="M6 830q0 23 17 40.5t41 17.5q23 0 40.5 -17.5t17.5 -40.5q0 -24 -17.5 -41t-40.5 -17q-24 0 -41 17t-17 41zM42 0v20q34 2 51.5 8t23.5 24t6 54v496q0 37 -6 54.5t-23.5 24t-51.5 7.5v20q21 -1 55 -2t73 -1q35 0 69.5 1t57.5 2v-20q-34 -1 -51.5 -7.5t-23.5 -24t-6 -54.5 v-496q0 -36 6 -54t23.5 -24t51.5 -8v-20q-23 2 -57.5 2.5t-69.5 0.5q-39 0 -73 -0.5t-55 -2.5zM218 830q0 23 17 40.5t41 17.5q23 0 40.5 -17.5t17.5 -40.5q0 -24 -17.5 -41t-40.5 -17q-24 0 -41 17t-17 41z" />
<glyph unicode="&#xd0;" horiz-adv-x="723" d="M9 346v20h354v-20h-354zM42 0v20q34 2 51.5 8t23.5 24t6 54v496q0 37 -6 54.5t-23.5 24t-51.5 7.5v20q21 -1 55 -2.5t67 -0.5q35 1 79 2t72 1q179 0 266 -89.5t87 -256.5q0 -109 -42.5 -190.5t-123.5 -126.5t-196 -45q-22 0 -65 1.5t-75 1.5q-35 0 -69 -0.5t-55 -2.5z M216 104q0 -52 14.5 -69t60.5 -17q109 0 169 39.5t84 115.5t24 185q0 168 -61.5 250t-216.5 82q-46 0 -60 -17t-14 -69v-500z" />
<glyph unicode="&#xd1;" horiz-adv-x="706" d="M42 0v20q34 2 51.5 10.5t23.5 29t6 56.5v486q0 37 -6 54.5t-23.5 24t-51.5 7.5v20q17 -1 42.5 -2t50.5 -1q22 0 42 1t36 2l353 -544v428q0 37 -6.5 57t-26 29t-58.5 10v20q18 -1 47.5 -2t54.5 -1q26 0 51.5 1t41.5 2v-20q-34 -1 -51.5 -10t-23.5 -29t-6 -57v-597h-11.5 h-11.5l-420 649v-528q0 -36 6.5 -56.5t26 -29t58.5 -10.5v-20q-18 2 -47 2.5t-55 0.5q-25 0 -50.5 -0.5t-42.5 -2.5zM182 796q5 50 37 78t74 28q28 0 52 -11.5t47 -27t46 -27t49 -11.5q20 0 36.5 12t25.5 44l15 -3q-4 -49 -36.5 -77.5t-74.5 -28.5q-28 0 -52 11.5t-47 27 t-46 27t-49 11.5q-21 0 -37 -12t-25 -44z" />
<glyph unicode="&#xd2;" horiz-adv-x="741" d="M53 348q0 112 41 196t112.5 131t164.5 47q95 0 166.5 -43t111 -123.5t39.5 -195.5q0 -112 -40.5 -196t-112.5 -131t-165 -47q-95 0 -166.5 43t-111 124t-39.5 195zM153 352q0 -106 29.5 -184.5t80 -121t111.5 -42.5q65 0 113 45t74.5 124.5t26.5 182.5q0 107 -29.5 185 t-79.5 120.5t-112 42.5q-65 0 -113 -45t-74.5 -124t-26.5 -183zM203 890.5q-4 15.5 4 28.5t24.5 16.5t36.5 -9.5q21 -13 42 -33t50.5 -46.5t75.5 -61.5l-7 -13q-51 26 -88.5 40.5t-64 25t-48.5 23.5q-21 14 -25 29.5z" />
<glyph unicode="&#xd3;" horiz-adv-x="741" d="M53 348q0 112 41 196t112.5 131t164.5 47q95 0 166.5 -43t111 -123.5t39.5 -195.5q0 -112 -40.5 -196t-112.5 -131t-165 -47q-95 0 -166.5 43t-111 124t-39.5 195zM153 352q0 -106 29.5 -184.5t80 -121t111.5 -42.5q65 0 113 45t74.5 124.5t26.5 182.5q0 107 -29.5 185 t-79.5 120.5t-112 42.5q-65 0 -113 -45t-74.5 -124t-26.5 -183zM308 785q46 35 75.5 61.5t50.5 46.5t42 33q20 13 36.5 9.5t24.5 -16.5t4 -28.5t-25 -29.5q-21 -13 -48.5 -23.5t-64 -25t-88.5 -40.5z" />
<glyph unicode="&#xd4;" horiz-adv-x="741" d="M53 348q0 112 41 196t112.5 131t164.5 47q95 0 166.5 -43t111 -123.5t39.5 -195.5q0 -112 -40.5 -196t-112.5 -131t-165 -47q-95 0 -166.5 43t-111 124t-39.5 195zM153 352q0 -106 29.5 -184.5t80 -121t111.5 -42.5q65 0 113 45t74.5 124.5t26.5 182.5q0 107 -29.5 185 t-79.5 120.5t-112 42.5q-65 0 -113 -45t-74.5 -124t-26.5 -183zM173 784q65 23 114.5 58.5t72.5 73.5h18q23 -38 72.5 -73.5t114.5 -58.5l-5 -14q-60 13 -118 32t-93 38q-28 -19 -75.5 -38t-95.5 -32z" />
<glyph unicode="&#xd5;" horiz-adv-x="741" d="M53 348q0 112 41 196t112.5 131t164.5 47q95 0 166.5 -43t111 -123.5t39.5 -195.5q0 -112 -40.5 -196t-112.5 -131t-165 -47q-95 0 -166.5 43t-111 124t-39.5 195zM153 352q0 -106 29.5 -184.5t80 -121t111.5 -42.5q65 0 113 45t74.5 124.5t26.5 182.5q0 107 -29.5 185 t-79.5 120.5t-112 42.5q-65 0 -113 -45t-74.5 -124t-26.5 -183zM177 796q5 50 37 78t74 28q28 0 52 -11.5t47 -27t46 -27t49 -11.5q20 0 36.5 12t25.5 44l15 -3q-4 -49 -36.5 -77.5t-74.5 -28.5q-28 0 -52 11.5t-47 27t-46 27t-49 11.5q-21 0 -37 -12t-25 -44z" />
<glyph unicode="&#xd6;" horiz-adv-x="741" d="M53 348q0 112 41 196t112.5 131t164.5 47q95 0 166.5 -43t111 -123.5t39.5 -195.5q0 -112 -40.5 -196t-112.5 -131t-165 -47q-95 0 -166.5 43t-111 124t-39.5 195zM153 352q0 -106 29.5 -184.5t80 -121t111.5 -42.5q65 0 113 45t74.5 124.5t26.5 182.5q0 107 -29.5 185 t-79.5 120.5t-112 42.5q-65 0 -113 -45t-74.5 -124t-26.5 -183zM205 830q0 23 17 40.5t41 17.5q23 0 40.5 -17.5t17.5 -40.5q0 -24 -17.5 -41t-40.5 -17q-24 0 -41 17t-17 41zM417 830q0 23 17 40.5t41 17.5q23 0 40.5 -17.5t17.5 -40.5q0 -24 -17.5 -41t-40.5 -17 q-24 0 -41 17t-17 41z" />
<glyph unicode="&#xd7;" horiz-adv-x="510" d="M59 530l22 22l175 -175l173 173l22 -22l-173 -172l173 -173l-22 -22l-173 173l-174 -174l-22 22l174 173z" />
<glyph unicode="&#xd8;" horiz-adv-x="741" d="M53 348q0 112 41 196t112.5 131t164.5 47q95 0 166.5 -43t111 -123.5t39.5 -195.5q0 -112 -40.5 -196t-112.5 -131t-165 -47q-95 0 -166.5 43t-111 124t-39.5 195zM73 -59l105 154l18 -18l-102 -150zM153 352q0 -106 29.5 -184.5t80 -121t111.5 -42.5q65 0 113 45 t74.5 124.5t26.5 182.5q0 107 -29.5 185t-79.5 120.5t-112 42.5q-65 0 -113 -45t-74.5 -124t-26.5 -183zM186 95l353 537l15 -20l-350 -535zM546 632l97 141l19 -13l-101 -148z" />
<glyph unicode="&#xd9;" horiz-adv-x="682" d="M27 688v20q21 -1 55 -2t73 -1q35 0 69.5 1t57.5 2v-20q-34 -1 -51.5 -7.5t-23.5 -24t-6 -54.5v-331q0 -68 10 -125t43.5 -91t104.5 -34q76 0 117.5 33.5t58 92.5t16.5 133v312q0 37 -8.5 57t-28.5 29t-54 10v20q18 -1 47.5 -2t54.5 -1q26 0 51.5 1t41.5 2v-20 q-34 -1 -51.5 -10t-23.5 -29t-6 -57v-301q0 -70 -9 -122t-32 -90q-25 -42 -73 -67.5t-110 -25.5q-48 0 -91.5 11.5t-76.5 42.5q-29 28 -45.5 59t-22.5 76t-6 113v314q0 37 -6 54.5t-23.5 24t-51.5 7.5zM186 890.5q-4 15.5 4 28.5t24.5 16.5t36.5 -9.5q21 -13 42 -33 t50.5 -46.5t75.5 -61.5l-7 -13q-51 26 -88.5 40.5t-64 25t-48.5 23.5q-21 14 -25 29.5z" />
<glyph unicode="&#xda;" horiz-adv-x="682" d="M27 688v20q21 -1 55 -2t73 -1q35 0 69.5 1t57.5 2v-20q-34 -1 -51.5 -7.5t-23.5 -24t-6 -54.5v-331q0 -68 10 -125t43.5 -91t104.5 -34q76 0 117.5 33.5t58 92.5t16.5 133v312q0 37 -8.5 57t-28.5 29t-54 10v20q18 -1 47.5 -2t54.5 -1q26 0 51.5 1t41.5 2v-20 q-34 -1 -51.5 -10t-23.5 -29t-6 -57v-301q0 -70 -9 -122t-32 -90q-25 -42 -73 -67.5t-110 -25.5q-48 0 -91.5 11.5t-76.5 42.5q-29 28 -45.5 59t-22.5 76t-6 113v314q0 37 -6 54.5t-23.5 24t-51.5 7.5zM291 785q46 35 75.5 61.5t50.5 46.5t42 33q20 13 36.5 9.5t24.5 -16.5 t4 -28.5t-25 -29.5q-21 -13 -48.5 -23.5t-64 -25t-88.5 -40.5z" />
<glyph unicode="&#xdb;" horiz-adv-x="682" d="M27 688v20q21 -1 55 -2t73 -1q35 0 69.5 1t57.5 2v-20q-34 -1 -51.5 -7.5t-23.5 -24t-6 -54.5v-331q0 -68 10 -125t43.5 -91t104.5 -34q76 0 117.5 33.5t58 92.5t16.5 133v312q0 37 -8.5 57t-28.5 29t-54 10v20q18 -1 47.5 -2t54.5 -1q26 0 51.5 1t41.5 2v-20 q-34 -1 -51.5 -10t-23.5 -29t-6 -57v-301q0 -70 -9 -122t-32 -90q-25 -42 -73 -67.5t-110 -25.5q-48 0 -91.5 11.5t-76.5 42.5q-29 28 -45.5 59t-22.5 76t-6 113v314q0 37 -6 54.5t-23.5 24t-51.5 7.5zM156 784q65 23 114.5 58.5t72.5 73.5h18q23 -38 72.5 -73.5 t114.5 -58.5l-5 -14q-60 13 -118 32t-93 38q-28 -19 -75.5 -38t-95.5 -32z" />
<glyph unicode="&#xdc;" horiz-adv-x="682" d="M27 688v20q21 -1 55 -2t73 -1q35 0 69.5 1t57.5 2v-20q-34 -1 -51.5 -7.5t-23.5 -24t-6 -54.5v-331q0 -68 10 -125t43.5 -91t104.5 -34q76 0 117.5 33.5t58 92.5t16.5 133v312q0 37 -8.5 57t-28.5 29t-54 10v20q18 -1 47.5 -2t54.5 -1q26 0 51.5 1t41.5 2v-20 q-34 -1 -51.5 -10t-23.5 -29t-6 -57v-301q0 -70 -9 -122t-32 -90q-25 -42 -73 -67.5t-110 -25.5q-48 0 -91.5 11.5t-76.5 42.5q-29 28 -45.5 59t-22.5 76t-6 113v314q0 37 -6 54.5t-23.5 24t-51.5 7.5zM188 830q0 23 17 40.5t41 17.5q23 0 40.5 -17.5t17.5 -40.5 q0 -24 -17.5 -41t-40.5 -17q-24 0 -41 17t-17 41zM400 830q0 23 17 40.5t41 17.5q23 0 40.5 -17.5t17.5 -40.5q0 -24 -17.5 -41t-40.5 -17q-24 0 -41 17t-17 41z" />
<glyph unicode="&#xdd;" horiz-adv-x="591" d="M-3 687v21q20 -1 41.5 -2t46.5 -1q33 0 70.5 0.5t69.5 2.5v-21q-25 0 -44 -6t-25 -22t9 -45l169 -324l-8 -6l133 265q28 55 27.5 85t-23.5 41.5t-65 12.5v20q29 -1 59 -2t56 -1t43 1t32 2v-20q-19 -4 -38 -24.5t-42 -64.5l-202 -400h-17l-234 432q-20 37 -33.5 46.5 t-24.5 9.5zM177 0v20q34 2 51.5 8t23.5 24t6 54v205l54 -62l39 55v-198q0 -36 6 -54t23.5 -24t51.5 -8v-20q-23 2 -57.5 2.5t-69.5 0.5q-39 0 -73 -0.5t-55 -2.5zM243 785q46 35 75.5 61.5t50.5 46.5t42 33q20 13 36.5 9.5t24.5 -16.5t4 -28.5t-25 -29.5 q-21 -13 -48.5 -23.5t-64 -25t-88.5 -40.5z" />
<glyph unicode="&#xde;" horiz-adv-x="580" d="M42 0v20q34 2 51.5 8t23.5 24t6 54v496q0 37 -6 54.5t-23.5 24t-51.5 7.5v20q21 -1 55 -2t73 -1q35 0 69.5 1t57.5 2v-20q-34 -1 -51.5 -7.5t-23.5 -24t-6 -54.5v-496q0 -36 6 -54t23.5 -24t51.5 -8v-20q-23 2 -57.5 2.5t-69.5 0.5q-39 0 -73 -0.5t-55 -2.5zM157 557 q47 0 90 1t61 1q121 0 181 -56t60 -139q0 -38 -12 -77.5t-41.5 -73.5t-80.5 -54.5t-129 -20.5h-96v10v10h86q71 0 108.5 27.5t51 73.5t13.5 99q0 89 -37.5 135.5t-128.5 46.5q-31 0 -69 -1t-55 -1z" />
<glyph unicode="&#xdf;" horiz-adv-x="584" d="M21 0v21q44 0 60 21.5t16 66.5v429q0 90 25 143.5t69.5 77t102.5 23.5q86 0 131.5 -38.5t45.5 -104.5q0 -39 -18.5 -73t-46 -61t-56 -45.5t-49.5 -26.5q64 -14 118.5 -50t88.5 -89t34 -119q0 -59 -25.5 -101.5t-66.5 -65t-89 -22.5q-27 0 -55 9t-47.5 28t-19.5 49 q0 24 13.5 39t38.5 15q23 0 38 -13t15 -36q0 -18 -10.5 -31.5t-32.5 -20.5q3 -9 18 -16.5t34 -7.5q23 0 46 14.5t38.5 48.5t15.5 92q0 42 -10 84t-30 78.5t-51.5 64.5t-74.5 41q-8 -5 -18 -10t-19 -5q-7 0 -13.5 4.5t-6.5 12.5q0 19 23 19q7 0 16.5 -2t19.5 -6 q50 39 71 86.5t21 111.5q0 63 -25 97.5t-73 34.5q-18 0 -40.5 -10t-39 -40.5t-16.5 -92.5v-635q-22 8 -48.5 11t-55.5 3q-15 0 -30.5 -0.5t-31.5 -2.5z" />
<glyph unicode="&#xe0;" horiz-adv-x="498" d="M39 112q0 42 20.5 69.5t52.5 45t67.5 30t67.5 24.5t52.5 27t20.5 38v62q0 42 -12.5 64t-33.5 29.5t-47 7.5q-25 0 -53.5 -7t-45.5 -29q19 -4 33 -20t14 -41t-16 -39.5t-41 -14.5q-29 0 -42.5 18.5t-13.5 41.5q0 26 13 42t33 30q23 16 59.5 27.5t82.5 11.5q41 0 70 -9.5 t48 -27.5q26 -24 34 -58.5t8 -82.5v-278q0 -24 7 -35.5t24 -11.5q14 0 24.5 6t20.5 15l11 -17q-21 -16 -40 -26.5t-51 -10.5q-52 0 -69 27t-17 62q-32 -53 -72.5 -71t-84.5 -18q-65 0 -94.5 32.5t-29.5 86.5zM109.5 787q1.5 16 13.5 26q12 9 28.5 7t31.5 -22q15 -19 28 -45 t31.5 -61t49.5 -84l-11 -9q-39 42 -69 68.5t-51.5 45.5t-37.5 38q-15 20 -13.5 36zM127 124q0 -46 23 -68.5t57 -22.5q30 0 59 17.5t54 58.5v196q-15 -22 -46.5 -35t-65 -28.5t-57.5 -42t-24 -75.5z" />
<glyph unicode="&#xe1;" horiz-adv-x="498" d="M39 112q0 42 20.5 69.5t52.5 45t67.5 30t67.5 24.5t52.5 27t20.5 38v62q0 42 -12.5 64t-33.5 29.5t-47 7.5q-25 0 -53.5 -7t-45.5 -29q19 -4 33 -20t14 -41t-16 -39.5t-41 -14.5q-29 0 -42.5 18.5t-13.5 41.5q0 26 13 42t33 30q23 16 59.5 27.5t82.5 11.5q41 0 70 -9.5 t48 -27.5q26 -24 34 -58.5t8 -82.5v-278q0 -24 7 -35.5t24 -11.5q14 0 24.5 6t20.5 15l11 -17q-21 -16 -40 -26.5t-51 -10.5q-52 0 -69 27t-17 62q-32 -53 -72.5 -71t-84.5 -18q-65 0 -94.5 32.5t-29.5 86.5zM127 124q0 -46 23 -68.5t57 -22.5q30 0 59 17.5t54 58.5v196 q-15 -22 -46.5 -35t-65 -28.5t-57.5 -42t-24 -75.5zM184 608q31 49 49.5 84t31.5 61t28 45q15 20 31.5 22t28.5 -7q12 -10 13.5 -26t-13.5 -36q-15 -19 -37 -38t-51.5 -45.5t-69.5 -68.5z" />
<glyph unicode="&#xe2;" horiz-adv-x="498" d="M39 112q0 42 20.5 69.5t52.5 45t67.5 30t67.5 24.5t52.5 27t20.5 38v62q0 42 -12.5 64t-33.5 29.5t-47 7.5q-25 0 -53.5 -7t-45.5 -29q19 -4 33 -20t14 -41t-16 -39.5t-41 -14.5q-29 0 -42.5 18.5t-13.5 41.5q0 26 13 42t33 30q23 16 59.5 27.5t82.5 11.5q41 0 70 -9.5 t48 -27.5q26 -24 34 -58.5t8 -82.5v-278q0 -24 7 -35.5t24 -11.5q14 0 24.5 6t20.5 15l11 -17q-21 -16 -40 -26.5t-51 -10.5q-52 0 -69 27t-17 62q-32 -53 -72.5 -71t-84.5 -18q-65 0 -94.5 32.5t-29.5 86.5zM70 630q58 29 102.5 75.5t64.5 96.5h18q20 -50 64.5 -96.5 t102.5 -75.5l-8 -14q-54 19 -105 46t-83 54q-25 -27 -65.5 -54t-82.5 -46zM127 124q0 -46 23 -68.5t57 -22.5q30 0 59 17.5t54 58.5v196q-15 -22 -46.5 -35t-65 -28.5t-57.5 -42t-24 -75.5z" />
<glyph unicode="&#xe3;" horiz-adv-x="498" d="M39 112q0 42 20.5 69.5t52.5 45t67.5 30t67.5 24.5t52.5 27t20.5 38v62q0 42 -12.5 64t-33.5 29.5t-47 7.5q-25 0 -53.5 -7t-45.5 -29q19 -4 33 -20t14 -41t-16 -39.5t-41 -14.5q-29 0 -42.5 18.5t-13.5 41.5q0 26 13 42t33 30q23 16 59.5 27.5t82.5 11.5q41 0 70 -9.5 t48 -27.5q26 -24 34 -58.5t8 -82.5v-278q0 -24 7 -35.5t24 -11.5q14 0 24.5 6t20.5 15l11 -17q-21 -16 -40 -26.5t-51 -10.5q-52 0 -69 27t-17 62q-32 -53 -72.5 -71t-84.5 -18q-65 0 -94.5 32.5t-29.5 86.5zM53 665q16 56 48.5 79.5t70.5 23.5q27 0 46 -10t34.5 -23t32 -23 t38.5 -10q21 0 40.5 12.5t36.5 40.5l14 -7q-16 -55 -48 -79t-70 -24q-27 0 -46.5 10t-35 23.5t-32 23.5t-38.5 10q-21 0 -40.5 -12.5t-36.5 -41.5zM127 124q0 -46 23 -68.5t57 -22.5q30 0 59 17.5t54 58.5v196q-15 -22 -46.5 -35t-65 -28.5t-57.5 -42t-24 -75.5z" />
<glyph unicode="&#xe4;" horiz-adv-x="498" d="M39 112q0 42 20.5 69.5t52.5 45t67.5 30t67.5 24.5t52.5 27t20.5 38v62q0 42 -12.5 64t-33.5 29.5t-47 7.5q-25 0 -53.5 -7t-45.5 -29q19 -4 33 -20t14 -41t-16 -39.5t-41 -14.5q-29 0 -42.5 18.5t-13.5 41.5q0 26 13 42t33 30q23 16 59.5 27.5t82.5 11.5q41 0 70 -9.5 t48 -27.5q26 -24 34 -58.5t8 -82.5v-278q0 -24 7 -35.5t24 -11.5q14 0 24.5 6t20.5 15l11 -17q-21 -16 -40 -26.5t-51 -10.5q-52 0 -69 27t-17 62q-32 -53 -72.5 -71t-84.5 -18q-65 0 -94.5 32.5t-29.5 86.5zM83 685q0 23 17 40.5t41 17.5q23 0 40.5 -17.5t17.5 -40.5 q0 -24 -17.5 -41t-40.5 -17q-24 0 -41 17t-17 41zM127 124q0 -46 23 -68.5t57 -22.5q30 0 59 17.5t54 58.5v196q-15 -22 -46.5 -35t-65 -28.5t-57.5 -42t-24 -75.5zM295 685q0 23 17 40.5t41 17.5q23 0 40.5 -17.5t17.5 -40.5q0 -24 -17.5 -41t-40.5 -17q-24 0 -41 17 t-17 41z" />
<glyph unicode="&#xe5;" horiz-adv-x="498" d="M39 112q0 42 20.5 69.5t52.5 45t67.5 30t67.5 24.5t52.5 27t20.5 38v62q0 42 -12.5 64t-33.5 29.5t-47 7.5q-25 0 -53.5 -7t-45.5 -29q19 -4 33 -20t14 -41t-16 -39.5t-41 -14.5q-29 0 -42.5 18.5t-13.5 41.5q0 26 13 42t33 30q23 16 59.5 27.5t82.5 11.5q41 0 70 -9.5 t48 -27.5q26 -24 34 -58.5t8 -82.5v-278q0 -24 7 -35.5t24 -11.5q14 0 24.5 6t20.5 15l11 -17q-21 -16 -40 -26.5t-51 -10.5q-52 0 -69 27t-17 62q-32 -53 -72.5 -71t-84.5 -18q-65 0 -94.5 32.5t-29.5 86.5zM127 124q0 -46 23 -68.5t57 -22.5q30 0 59 17.5t54 58.5v196 q-15 -22 -46.5 -35t-65 -28.5t-57.5 -42t-24 -75.5zM150 700q0 42 29 66.5t67 24.5q39 0 68 -24.5t29 -66.5q0 -43 -29 -67.5t-68 -24.5q-38 0 -67 24.5t-29 67.5zM178 699q0 -35 22 -52.5t46 -17.5q25 0 47 17.5t22 52.5t-22 53t-47 18q-24 0 -46 -18t-22 -53z" />
<glyph unicode="&#xe6;" horiz-adv-x="745" d="M39 112q0 42 20.5 69.5t52.5 45t67.5 30t67.5 24.5t52.5 27t20.5 38v62q0 42 -12.5 64t-33.5 29.5t-47 7.5q-25 0 -53.5 -7t-45.5 -29q19 -4 33 -20t14 -41t-16 -39.5t-41 -14.5q-29 0 -42.5 18.5t-13.5 41.5q0 26 13 42t33 30q23 16 59.5 27.5t82.5 11.5q41 0 70 -9.5 t48 -27.5q25 -24 32.5 -59t7.5 -83l-61 -227q-29 -57 -60.5 -85t-63 -36.5t-60.5 -8.5q-65 0 -94.5 32.5t-29.5 86.5zM127 124q0 -46 23 -68.5t57 -22.5q30 0 59 17.5t54 58.5v196q-15 -22 -46.5 -35t-65 -28.5t-57.5 -42t-24 -75.5zM323 245q0 93 24.5 156.5t70 95.5 t107.5 32q83 0 130 -53.5t47 -166.5h-323l-1 19h228q2 49 -7 90.5t-28.5 66.5t-49.5 25q-42 0 -74 -46t-38 -146l3 -4q-2 -15 -3 -33t-1 -36q0 -68 20.5 -117t52.5 -74.5t68 -25.5q39 0 71.5 22t55.5 78l20 -8q-10 -33 -32.5 -64t-56 -50.5t-78.5 -19.5q-66 0 -112 31 t-70 89t-24 139z" />
<glyph unicode="&#xe7;" horiz-adv-x="486" d="M46 251q0 82 29.5 144.5t82.5 98t121 35.5q32 0 62 -8t54 -24q23 -15 35 -34.5t12 -42.5q0 -27 -15 -41.5t-38 -14.5q-22 0 -38.5 13t-16.5 37q0 23 12.5 37t29.5 18q-10 18 -35.5 30t-54.5 12q-25 0 -50 -12t-46 -39.5t-34 -75t-13 -118.5q0 -88 20 -140t52.5 -74.5 t71.5 -22.5t79 23t66 80l19 -7q-10 -32 -33 -64.5t-60 -53.5t-91 -21q-62 0 -112 32t-79.5 91.5t-29.5 141.5zM163 -177l4 18q5 -1 15.5 -2t22.5 -1q29 0 59.5 9t30.5 36q0 28 -42 28q-8 0 -23 -1.5t-26 -5.5l34 102h27l-26 -78q13 3 28 5t31 2q28 0 44.5 -12t16.5 -35 q0 -28 -18.5 -44.5t-44.5 -24t-50 -7.5q-28 0 -48.5 3.5t-34.5 7.5z" />
<glyph unicode="&#xe8;" horiz-adv-x="506" d="M46 245q0 88 28 151.5t79 98t119 34.5q88 0 137.5 -53.5t49.5 -166.5h-353l-1 19h258q2 49 -8 90.5t-31.5 66.5t-55.5 25q-46 0 -81.5 -46t-42.5 -146l3 -4q-2 -15 -3 -33t-1 -36q0 -68 22 -117t57.5 -74.5t73.5 -25.5q45 0 83 22t64 78l20 -8q-11 -33 -36 -64t-63 -50.5 t-88 -19.5q-72 0 -123.5 33t-79 91.5t-27.5 134.5zM134.5 787q1.5 16 13.5 26q12 9 28.5 7t31.5 -22q15 -19 28 -45t31.5 -61t49.5 -84l-11 -9q-39 42 -69 68.5t-51.5 45.5t-37.5 38q-15 20 -13.5 36z" />
<glyph unicode="&#xe9;" horiz-adv-x="506" d="M46 245q0 88 28 151.5t79 98t119 34.5q88 0 137.5 -53.5t49.5 -166.5h-353l-1 19h258q2 49 -8 90.5t-31.5 66.5t-55.5 25q-46 0 -81.5 -46t-42.5 -146l3 -4q-2 -15 -3 -33t-1 -36q0 -68 22 -117t57.5 -74.5t73.5 -25.5q45 0 83 22t64 78l20 -8q-11 -33 -36 -64t-63 -50.5 t-88 -19.5q-72 0 -123.5 33t-79 91.5t-27.5 134.5zM209 608q31 49 49.5 84t31.5 61t28 45q15 20 31.5 22t28.5 -7q12 -10 13.5 -26t-13.5 -36q-15 -19 -37 -38t-51.5 -45.5t-69.5 -68.5z" />
<glyph unicode="&#xea;" horiz-adv-x="506" d="M46 245q0 88 28 151.5t79 98t119 34.5q88 0 137.5 -53.5t49.5 -166.5h-353l-1 19h258q2 49 -8 90.5t-31.5 66.5t-55.5 25q-46 0 -81.5 -46t-42.5 -146l3 -4q-2 -15 -3 -33t-1 -36q0 -68 22 -117t57.5 -74.5t73.5 -25.5q45 0 83 22t64 78l20 -8q-11 -33 -36 -64t-63 -50.5 t-88 -19.5q-72 0 -123.5 33t-79 91.5t-27.5 134.5zM95 630q58 29 102.5 75.5t64.5 96.5h18q20 -50 64.5 -96.5t102.5 -75.5l-8 -14q-54 19 -105 46t-83 54q-25 -27 -65.5 -54t-82.5 -46z" />
<glyph unicode="&#xeb;" horiz-adv-x="506" d="M46 245q0 88 28 151.5t79 98t119 34.5q88 0 137.5 -53.5t49.5 -166.5h-353l-1 19h258q2 49 -8 90.5t-31.5 66.5t-55.5 25q-46 0 -81.5 -46t-42.5 -146l3 -4q-2 -15 -3 -33t-1 -36q0 -68 22 -117t57.5 -74.5t73.5 -25.5q45 0 83 22t64 78l20 -8q-11 -33 -36 -64t-63 -50.5 t-88 -19.5q-72 0 -123.5 33t-79 91.5t-27.5 134.5zM108 685q0 23 17 40.5t41 17.5q23 0 40.5 -17.5t17.5 -40.5q0 -24 -17.5 -41t-40.5 -17q-24 0 -41 17t-17 41zM320 685q0 23 17 40.5t41 17.5q23 0 40.5 -17.5t17.5 -40.5q0 -24 -17.5 -41t-40.5 -17q-24 0 -41 17t-17 41z " />
<glyph unicode="&#xec;" horiz-adv-x="293" d="M4.5 787q1.5 16 13.5 26q12 9 28.5 7t31.5 -22q15 -19 28 -45t31.5 -61t49.5 -84l-11 -9q-39 42 -69 68.5t-51.5 45.5t-37.5 38q-15 20 -13.5 36zM29 0v21q41 0 58.5 15t17.5 57v313q0 45 -16 66.5t-60 21.5v21q32 -3 62 -3q29 0 55.5 3.5t48.5 10.5v-433q0 -42 17.5 -57 t58.5 -15v-21q-17 1 -51.5 2.5t-69.5 1.5q-34 0 -69 -1.5t-52 -2.5z" />
<glyph unicode="&#xed;" horiz-adv-x="293" d="M29 0v21q41 0 58.5 15t17.5 57v313q0 45 -16 66.5t-60 21.5v21q32 -3 62 -3q29 0 55.5 3.5t48.5 10.5v-433q0 -42 17.5 -57t58.5 -15v-21q-17 1 -51.5 2.5t-69.5 1.5q-34 0 -69 -1.5t-52 -2.5zM79 608q31 49 49.5 84t31.5 61t28 45q15 20 31.5 22t28.5 -7 q12 -10 13.5 -26t-13.5 -36q-15 -19 -37 -38t-51.5 -45.5t-69.5 -68.5z" />
<glyph unicode="&#xee;" horiz-adv-x="293" d="M-35 630q58 29 102.5 75.5t64.5 96.5h18q20 -50 64.5 -96.5t102.5 -75.5l-8 -14q-54 19 -105 46t-83 54q-25 -27 -65.5 -54t-82.5 -46zM29 0v21q41 0 58.5 15t17.5 57v313q0 45 -16 66.5t-60 21.5v21q32 -3 62 -3q29 0 55.5 3.5t48.5 10.5v-433q0 -42 17.5 -57t58.5 -15 v-21q-17 1 -51.5 2.5t-69.5 1.5q-34 0 -69 -1.5t-52 -2.5z" />
<glyph unicode="&#xef;" horiz-adv-x="293" d="M-22 685q0 23 17 40.5t41 17.5q23 0 40.5 -17.5t17.5 -40.5q0 -24 -17.5 -41t-40.5 -17q-24 0 -41 17t-17 41zM29 0v21q41 0 58.5 15t17.5 57v313q0 45 -16 66.5t-60 21.5v21q32 -3 62 -3q29 0 55.5 3.5t48.5 10.5v-433q0 -42 17.5 -57t58.5 -15v-21q-17 1 -51.5 2.5 t-69.5 1.5q-34 0 -69 -1.5t-52 -2.5zM190 685q0 23 17 40.5t41 17.5q23 0 40.5 -17.5t17.5 -40.5q0 -24 -17.5 -41t-40.5 -17q-24 0 -41 17t-17 41z" />
<glyph unicode="&#xf0;" horiz-adv-x="554" d="M46 255q0 66 24.5 129t73 104t120.5 41q76 0 114.5 -44.5t45.5 -138.5l-21 -4q-4 72 -25.5 107.5t-50 47t-56.5 11.5q-35 0 -64.5 -24t-46.5 -80t-17 -151q0 -90 17 -144t45 -78.5t60 -24.5q35 0 66.5 26t51.5 90.5t20 179.5t-23 193t-62 129t-88 84t-100 57l8 17 q97 -38 178.5 -99t131.5 -154t50 -227q0 -107 -32.5 -177.5t-84.5 -104.5t-111 -34q-65 0 -116 30t-79.5 90t-28.5 149zM88 600l191 93l17 -14l-199 -97zM279 693l156 76l9 -18l-148 -72z" />
<glyph unicode="&#xf1;" horiz-adv-x="597" d="M29 0v21q41 0 58.5 15t17.5 57v313q0 45 -16 66.5t-60 21.5v21q32 -3 62 -3q29 0 55.5 3.5t48.5 10.5v-118q26 68 72.5 94.5t97.5 26.5q38 0 63.5 -10t42.5 -28q19 -20 27 -50t8 -81v-267q0 -42 17.5 -57t58.5 -15v-21q-17 1 -52 2.5t-68 1.5t-64.5 -1.5t-47.5 -2.5v21 q36 0 51 15t15 57v289q0 31 -5 57t-22.5 42t-53.5 16q-63 0 -101.5 -52.5t-38.5 -129.5v-222q0 -42 15 -57t51 -15v-21q-16 1 -47.5 2.5t-64.5 1.5t-68 -1.5t-52 -2.5zM113 665q16 56 48.5 79.5t70.5 23.5q27 0 46 -10t34.5 -23t32 -23t38.5 -10q21 0 40.5 12.5t36.5 40.5 l14 -7q-16 -55 -48 -79t-70 -24q-27 0 -46.5 10t-35 23.5t-32 23.5t-38.5 10q-21 0 -40.5 -12.5t-36.5 -41.5z" />
<glyph unicode="&#xf2;" horiz-adv-x="548" d="M47 257q0 96 30.5 156t82 88t114.5 28q64 0 115 -28t81.5 -88t30.5 -156t-30.5 -155.5t-81.5 -87.5t-115 -28q-63 0 -114.5 28t-82 87.5t-30.5 155.5zM140.5 787q1.5 16 13.5 26q12 9 28.5 7t31.5 -22q15 -19 28 -45t31.5 -61t49.5 -84l-11 -9q-39 42 -69 68.5 t-51.5 45.5t-37.5 38q-15 20 -13.5 36zM144 257q0 -134 36.5 -192.5t93.5 -58.5t93.5 58.5t36.5 192.5t-36.5 193t-93.5 59t-93.5 -59t-36.5 -193z" />
<glyph unicode="&#xf3;" horiz-adv-x="548" d="M47 257q0 96 30.5 156t82 88t114.5 28q64 0 115 -28t81.5 -88t30.5 -156t-30.5 -155.5t-81.5 -87.5t-115 -28q-63 0 -114.5 28t-82 87.5t-30.5 155.5zM144 257q0 -134 36.5 -192.5t93.5 -58.5t93.5 58.5t36.5 192.5t-36.5 193t-93.5 59t-93.5 -59t-36.5 -193zM215 608 q31 49 49.5 84t31.5 61t28 45q15 20 31.5 22t28.5 -7q12 -10 13.5 -26t-13.5 -36q-15 -19 -37 -38t-51.5 -45.5t-69.5 -68.5z" />
<glyph unicode="&#xf4;" horiz-adv-x="548" d="M47 257q0 96 30.5 156t82 88t114.5 28q64 0 115 -28t81.5 -88t30.5 -156t-30.5 -155.5t-81.5 -87.5t-115 -28q-63 0 -114.5 28t-82 87.5t-30.5 155.5zM101 630q58 29 102.5 75.5t64.5 96.5h18q20 -50 64.5 -96.5t102.5 -75.5l-8 -14q-54 19 -105 46t-83 54 q-25 -27 -65.5 -54t-82.5 -46zM144 257q0 -134 36.5 -192.5t93.5 -58.5t93.5 58.5t36.5 192.5t-36.5 193t-93.5 59t-93.5 -59t-36.5 -193z" />
<glyph unicode="&#xf5;" horiz-adv-x="548" d="M47 257q0 96 30.5 156t82 88t114.5 28q64 0 115 -28t81.5 -88t30.5 -156t-30.5 -155.5t-81.5 -87.5t-115 -28q-63 0 -114.5 28t-82 87.5t-30.5 155.5zM84 665q16 56 48.5 79.5t70.5 23.5q27 0 46 -10t34.5 -23t32 -23t38.5 -10q21 0 40.5 12.5t36.5 40.5l14 -7 q-16 -55 -48 -79t-70 -24q-27 0 -46.5 10t-35 23.5t-32 23.5t-38.5 10q-21 0 -40.5 -12.5t-36.5 -41.5zM144 257q0 -134 36.5 -192.5t93.5 -58.5t93.5 58.5t36.5 192.5t-36.5 193t-93.5 59t-93.5 -59t-36.5 -193z" />
<glyph unicode="&#xf6;" horiz-adv-x="548" d="M47 257q0 96 30.5 156t82 88t114.5 28q64 0 115 -28t81.5 -88t30.5 -156t-30.5 -155.5t-81.5 -87.5t-115 -28q-63 0 -114.5 28t-82 87.5t-30.5 155.5zM114 685q0 23 17 40.5t41 17.5q23 0 40.5 -17.5t17.5 -40.5q0 -24 -17.5 -41t-40.5 -17q-24 0 -41 17t-17 41zM144 257 q0 -134 36.5 -192.5t93.5 -58.5t93.5 58.5t36.5 192.5t-36.5 193t-93.5 59t-93.5 -59t-36.5 -193zM326 685q0 23 17 40.5t41 17.5q23 0 40.5 -17.5t17.5 -40.5q0 -24 -17.5 -41t-40.5 -17q-24 0 -41 17t-17 41z" />
<glyph unicode="&#xf7;" horiz-adv-x="649" d="M73 340v30h501v-30h-501zM269 211q0 23 16.5 39t38.5 16q23 0 39.5 -16t16.5 -39t-16.5 -39.5t-39.5 -16.5q-22 0 -38.5 16.5t-16.5 39.5zM269 499q0 23 16.5 39t38.5 16q23 0 39.5 -16t16.5 -39t-16.5 -39t-39.5 -16q-22 0 -38.5 16t-16.5 39z" />
<glyph unicode="&#xf8;" horiz-adv-x="548" d="M43 -59l98 143l16 -21l-93 -136zM47 257q0 96 30.5 156t82 88t114.5 28q64 0 115 -28t81.5 -88t30.5 -156t-30.5 -155.5t-81.5 -87.5t-115 -28q-63 0 -114.5 28t-82 87.5t-30.5 155.5zM144 257q0 -134 36.5 -192.5t93.5 -58.5t93.5 58.5t36.5 192.5t-36.5 193t-93.5 59 t-93.5 -59t-36.5 -193zM151 84l241 382l15 -20l-240 -383zM402 466l83 121l19 -13l-87 -128z" />
<glyph unicode="&#xf9;" horiz-adv-x="581" d="M16 494v21q32 -3 62 -3q29 0 55.5 3.5t48.5 10.5v-393q0 -31 4 -57t20 -42t52 -16q59 0 97 52.5t38 128.5v207q0 45 -16 66.5t-60 21.5v21q32 -3 62 -3q29 0 55.5 3.5t48.5 10.5v-418q0 -45 16.5 -66.5t59.5 -21.5v-21q-31 3 -62 3q-29 0 -55.5 -3t-48.5 -11v118 q-25 -65 -70.5 -92.5t-93.5 -27.5q-35 0 -61 10t-43 28q-19 20 -26 52t-7 79v251q0 45 -16 66.5t-60 21.5zM143.5 787q1.5 16 13.5 26q12 9 28.5 7t31.5 -22q15 -19 28 -45t31.5 -61t49.5 -84l-11 -9q-39 42 -69 68.5t-51.5 45.5t-37.5 38q-15 20 -13.5 36z" />
<glyph unicode="&#xfa;" horiz-adv-x="581" d="M16 494v21q32 -3 62 -3q29 0 55.5 3.5t48.5 10.5v-393q0 -31 4 -57t20 -42t52 -16q59 0 97 52.5t38 128.5v207q0 45 -16 66.5t-60 21.5v21q32 -3 62 -3q29 0 55.5 3.5t48.5 10.5v-418q0 -45 16.5 -66.5t59.5 -21.5v-21q-31 3 -62 3q-29 0 -55.5 -3t-48.5 -11v118 q-25 -65 -70.5 -92.5t-93.5 -27.5q-35 0 -61 10t-43 28q-19 20 -26 52t-7 79v251q0 45 -16 66.5t-60 21.5zM218 608q31 49 49.5 84t31.5 61t28 45q15 20 31.5 22t28.5 -7q12 -10 13.5 -26t-13.5 -36q-15 -19 -37 -38t-51.5 -45.5t-69.5 -68.5z" />
<glyph unicode="&#xfb;" horiz-adv-x="581" d="M16 494v21q32 -3 62 -3q29 0 55.5 3.5t48.5 10.5v-393q0 -31 4 -57t20 -42t52 -16q59 0 97 52.5t38 128.5v207q0 45 -16 66.5t-60 21.5v21q32 -3 62 -3q29 0 55.5 3.5t48.5 10.5v-418q0 -45 16.5 -66.5t59.5 -21.5v-21q-31 3 -62 3q-29 0 -55.5 -3t-48.5 -11v118 q-25 -65 -70.5 -92.5t-93.5 -27.5q-35 0 -61 10t-43 28q-19 20 -26 52t-7 79v251q0 45 -16 66.5t-60 21.5zM104 630q58 29 102.5 75.5t64.5 96.5h18q20 -50 64.5 -96.5t102.5 -75.5l-8 -14q-54 19 -105 46t-83 54q-25 -27 -65.5 -54t-82.5 -46z" />
<glyph unicode="&#xfc;" horiz-adv-x="581" d="M16 494v21q32 -3 62 -3q29 0 55.5 3.5t48.5 10.5v-393q0 -31 4 -57t20 -42t52 -16q59 0 97 52.5t38 128.5v207q0 45 -16 66.5t-60 21.5v21q32 -3 62 -3q29 0 55.5 3.5t48.5 10.5v-418q0 -45 16.5 -66.5t59.5 -21.5v-21q-31 3 -62 3q-29 0 -55.5 -3t-48.5 -11v118 q-25 -65 -70.5 -92.5t-93.5 -27.5q-35 0 -61 10t-43 28q-19 20 -26 52t-7 79v251q0 45 -16 66.5t-60 21.5zM117 685q0 23 17 40.5t41 17.5q23 0 40.5 -17.5t17.5 -40.5q0 -24 -17.5 -41t-40.5 -17q-24 0 -41 17t-17 41zM329 685q0 23 17 40.5t41 17.5q23 0 40.5 -17.5 t17.5 -40.5q0 -24 -17.5 -41t-40.5 -17q-24 0 -41 17t-17 41z" />
<glyph unicode="&#xfd;" horiz-adv-x="504" d="M-4 494v21q22 -3 46 -4.5t52 -1.5q31 0 65.5 2t64.5 4v-21q-25 0 -44.5 -3.5t-24.5 -21t12 -59.5l123 -305l-6 -2l114 298q19 50 4 70t-68 24v20q26 -1 43.5 -2t40.5 -1t41.5 1t34.5 2v-20q-19 -2 -35 -17t-30 -53l-164 -430h-17l-184 443q-19 39 -37.5 47.5t-30.5 8.5z M42 -128q0 24 14 38.5t39 14.5q21 0 36 -12t15 -35q0 -17 -8 -28t-19 -17q2 -1 3.5 -1h2.5q27 0 48 18.5t37 59.5l36 93l19 -8l-34 -87q-19 -49 -43 -70q-16 -15 -38 -20.5t-40 -5.5q-19 0 -34.5 7t-24.5 20.5t-9 32.5zM192 608q31 49 49.5 84t31.5 61t28 45q15 20 31.5 22 t28.5 -7q12 -10 13.5 -26t-13.5 -36q-15 -19 -37 -38t-51.5 -45.5t-69.5 -68.5z" />
<glyph unicode="&#xfe;" horiz-adv-x="559" d="M0 751v21q32 -3 62 -3q29 0 55.5 3.5t48.5 10.5v-871q0 -43 25.5 -57.5t70.5 -14.5v-21q-22 1 -61 2.5t-83 1.5q-31 0 -61.5 -1.5t-46.5 -2.5v21q36 0 51 13t15 49v761q0 45 -16 66.5t-60 21.5zM147 350q11 85 60.5 132t118.5 47q79 0 132.5 -63.5t53.5 -184.5 q0 -72 -23.5 -140t-73.5 -111.5t-132 -43.5q-47 0 -81.5 22t-46.5 53l10 14q14 -28 40.5 -47t66.5 -19q56 0 87 35t43.5 93.5t12.5 129.5q0 80 -13 131t-39 76t-64 25q-49 0 -89 -40.5t-51 -122.5z" />
<glyph unicode="&#xff;" horiz-adv-x="504" d="M-4 494v21q22 -3 46 -4.5t52 -1.5q31 0 65.5 2t64.5 4v-21q-25 0 -44.5 -3.5t-24.5 -21t12 -59.5l123 -305l-6 -2l114 298q19 50 4 70t-68 24v20q26 -1 43.5 -2t40.5 -1t41.5 1t34.5 2v-20q-19 -2 -35 -17t-30 -53l-164 -430h-17l-184 443q-19 39 -37.5 47.5t-30.5 8.5z M42 -128q0 24 14 38.5t39 14.5q21 0 36 -12t15 -35q0 -17 -8 -28t-19 -17q2 -1 3.5 -1h2.5q27 0 48 18.5t37 59.5l36 93l19 -8l-34 -87q-19 -49 -43 -70q-16 -15 -38 -20.5t-40 -5.5q-19 0 -34.5 7t-24.5 20.5t-9 32.5zM91 685q0 23 17 40.5t41 17.5q23 0 40.5 -17.5 t17.5 -40.5q0 -24 -17.5 -41t-40.5 -17q-24 0 -41 17t-17 41zM303 685q0 23 17 40.5t41 17.5q23 0 40.5 -17.5t17.5 -40.5q0 -24 -17.5 -41t-40.5 -17q-24 0 -41 17t-17 41z" />
<glyph unicode="&#x152;" horiz-adv-x="928" d="M53 348q0 112 41 196t112.5 131t164.5 47q48 0 88 -15q60 -1 119 -1.5t93 -0.5q41 0 94 0.5t95 2.5q-4 -35 -5.5 -68t-1.5 -50q0 -18 1 -34.5t2 -27.5h-23q-6 59 -17 93.5t-37.5 49t-79.5 14.5h-33q-34 0 -51.5 -5.5t-23.5 -23t-6 -54.5v-496q0 -36 6 -54t23.5 -23.5 t51.5 -5.5h23q63 0 95.5 17t47 55.5t21.5 104.5h23q-3 -27 -3 -72q0 -19 1.5 -54.5t5.5 -73.5q-46 2 -104.5 2.5t-104.5 0.5h-97t-122 -2q-19 -7 -39.5 -11t-42.5 -4q-95 0 -166.5 43t-111 124t-39.5 195zM153 352q0 -106 29.5 -184.5t80 -121t111.5 -42.5q26 0 53.5 10.5 t46 33t18.5 58.5v496q0 37 -17 59t-45.5 32.5t-62.5 10.5q-65 0 -113 -45t-74.5 -124t-26.5 -183zM555 346v20h170v-20h-170zM628 346v20q44 0 61.5 19.5t22.5 46t9 46.5h23q-4 -49 -3.5 -74.5t0.5 -47.5t1 -47t5 -75h-23q-4 27 -9.5 53t-24 42.5t-62.5 16.5z" />
<glyph unicode="&#x153;" horiz-adv-x="835" d="M48 257q0 96 29 155.5t78.5 87.5t109.5 28q55 0 99.5 -28t71 -87.5t26.5 -155.5t-26.5 -155.5t-71 -87.5t-99.5 -28q-60 0 -109.5 28t-78.5 87.5t-29 155.5zM145 257q0 -134 34 -192.5t86 -58.5q53 0 86.5 58.5t33.5 192.5t-33.5 192.5t-86.5 58.5q-52 0 -86 -58.5 t-34 -192.5zM405 245q0 88 25.5 151.5t72 98t108.5 34.5q83 0 130 -53.5t47 -166.5h-323l-1 19h228q2 49 -7 90.5t-28.5 66.5t-49.5 25q-46 0 -81.5 -46t-42.5 -146l3 -4q-2 -15 -3 -33t-1 -36q0 -68 22 -117t57.5 -74.5t73.5 -25.5q42 0 77 22t60 78l20 -8q-10 -33 -34 -64 t-60 -50.5t-83 -19.5q-66 0 -113 33t-72 91.5t-25 134.5z" />
<glyph unicode="&#x178;" horiz-adv-x="591" d="M-3 687v21q20 -1 41.5 -2t46.5 -1q33 0 70.5 0.5t69.5 2.5v-21q-25 0 -44 -6t-25 -22t9 -45l169 -324l-8 -6l133 265q28 55 27.5 85t-23.5 41.5t-65 12.5v20q29 -1 59 -2t56 -1t43 1t32 2v-20q-19 -4 -38 -24.5t-42 -64.5l-202 -400h-17l-234 432q-20 37 -33.5 46.5 t-24.5 9.5zM140 830q0 23 17 40.5t41 17.5q23 0 40.5 -17.5t17.5 -40.5q0 -24 -17.5 -41t-40.5 -17q-24 0 -41 17t-17 41zM177 0v20q34 2 51.5 8t23.5 24t6 54v205l54 -62l39 55v-198q0 -36 6 -54t23.5 -24t51.5 -8v-20q-23 2 -57.5 2.5t-69.5 0.5q-39 0 -73 -0.5t-55 -2.5z M352 830q0 23 17 40.5t41 17.5q23 0 40.5 -17.5t17.5 -40.5q0 -24 -17.5 -41t-40.5 -17q-24 0 -41 17t-17 41z" />
<glyph unicode="&#x2c6;" horiz-adv-x="452" d="M50 630q58 29 102.5 75.5t64.5 96.5h18q20 -50 64.5 -96.5t102.5 -75.5l-8 -14q-54 19 -105 46t-83 54q-25 -27 -65.5 -54t-82.5 -46z" />
<glyph unicode="&#x2dc;" horiz-adv-x="461" d="M50 665q16 56 48.5 79.5t70.5 23.5q27 0 46 -10t34.5 -23t32 -23t38.5 -10q21 0 40.5 12.5t36.5 40.5l14 -7q-16 -55 -48 -79t-70 -24q-27 0 -46.5 10t-35 23.5t-32 23.5t-38.5 10q-21 0 -40.5 -12.5t-36.5 -41.5z" />
<glyph unicode="&#x2000;" horiz-adv-x="468" />
<glyph unicode="&#x2001;" horiz-adv-x="936" />
<glyph unicode="&#x2002;" horiz-adv-x="468" />
<glyph unicode="&#x2003;" horiz-adv-x="936" />
<glyph unicode="&#x2004;" horiz-adv-x="312" />
<glyph unicode="&#x2005;" horiz-adv-x="234" />
<glyph unicode="&#x2006;" horiz-adv-x="156" />
<glyph unicode="&#x2007;" horiz-adv-x="156" />
<glyph unicode="&#x2008;" horiz-adv-x="117" />
<glyph unicode="&#x2009;" horiz-adv-x="187" />
<glyph unicode="&#x200a;" horiz-adv-x="52" />
<glyph unicode="&#x2010;" horiz-adv-x="499" d="M69 240v58h361v-58h-361z" />
<glyph unicode="&#x2011;" horiz-adv-x="499" d="M69 240v58h361v-58h-361z" />
<glyph unicode="&#x2012;" horiz-adv-x="499" d="M69 240v58h361v-58h-361z" />
<glyph unicode="&#x2013;" horiz-adv-x="571" d="M59 249v40h453v-40h-453z" />
<glyph unicode="&#x2014;" horiz-adv-x="862" d="M59 249v40h744v-40h-744z" />
<glyph unicode="&#x2018;" horiz-adv-x="248" d="M55 568q0 49 25 89t78 65l9 -18q-31 -13 -53.5 -41t-22.5 -57q0 -12 3 -21q16 13 37 13q26 0 45 -17t19 -47q0 -28 -19 -46t-45 -18q-22 0 -36 9t-23 23q-11 16 -14 35t-3 31z" />
<glyph unicode="&#x2019;" horiz-adv-x="245" d="M54 658q0 28 19 46t45 18q22 0 36 -9t23 -23q11 -16 14 -35t3 -31q0 -49 -25 -89t-78 -65l-9 18q31 13 53.5 41t22.5 57q0 12 -3 21q-16 -13 -37 -13q-26 0 -45 17t-19 47z" />
<glyph unicode="&#x201a;" horiz-adv-x="261" d="M62 50q0 28 19 46t45 18q22 0 36 -9t23 -23q11 -16 14 -35t3 -31q0 -49 -25 -89t-78 -65l-9 18q31 13 53.5 41t22.5 57q0 12 -3 21q-16 -13 -37 -13q-26 0 -45 17t-19 47z" />
<glyph unicode="&#x201c;" horiz-adv-x="418" d="M55 568q0 49 25 89t78 65l9 -18q-31 -13 -53.5 -41t-22.5 -57q0 -12 3 -21q16 13 37 13q26 0 45 -17t19 -47q0 -28 -19 -46t-45 -18q-22 0 -36 9t-23 23q-11 16 -14 35t-3 31zM225 568q0 49 25 89t78 65l9 -18q-31 -13 -53.5 -41t-22.5 -57q0 -12 3 -21q16 13 37 13 q26 0 45 -17t19 -47q0 -28 -19 -46t-45 -18q-22 0 -36 9t-23 23q-11 16 -14 35t-3 31z" />
<glyph unicode="&#x201d;" horiz-adv-x="415" d="M54 658q0 28 19 46t45 18q22 0 36 -9t23 -23q11 -16 14 -35t3 -31q0 -49 -25 -89t-78 -65l-9 18q31 13 53.5 41t22.5 57q0 12 -3 21q-16 -13 -37 -13q-26 0 -45 17t-19 47zM224 658q0 28 19 46t45 18q22 0 36 -9t23 -23q11 -16 14 -35t3 -31q0 -49 -25 -89t-78 -65l-9 18 q31 13 53.5 41t22.5 57q0 12 -3 21q-16 -13 -37 -13q-26 0 -45 17t-19 47z" />
<glyph unicode="&#x201e;" horiz-adv-x="431" d="M62 50q0 28 19 46t45 18q22 0 36 -9t23 -23q11 -16 14 -35t3 -31q0 -49 -25 -89t-78 -65l-9 18q31 13 53.5 41t22.5 57q0 12 -3 21q-16 -13 -37 -13q-26 0 -45 17t-19 47zM232 50q0 28 19 46t45 18q22 0 36 -9t23 -23q11 -16 14 -35t3 -31q0 -49 -25 -89t-78 -65l-9 18 q31 13 53.5 41t22.5 57q0 12 -3 21q-16 -13 -37 -13q-26 0 -45 17t-19 47z" />
<glyph unicode="&#x2022;" horiz-adv-x="441" d="M78 269q0 40 19 72t51.5 51.5t71.5 19.5q40 0 72 -19.5t51.5 -51.5t19.5 -72q0 -39 -19.5 -71.5t-51.5 -51.5t-72 -19q-39 0 -71.5 19t-51.5 51.5t-19 71.5z" />
<glyph unicode="&#x2026;" horiz-adv-x="813" d="M62 50q0 26 19 45t45 19t45 -19t19 -45t-19 -45t-45 -19t-45 19t-19 45zM343 50q0 26 19 45t45 19t45 -19t19 -45t-19 -45t-45 -19t-45 19t-19 45zM623 50q0 26 19 45t45 19t45 -19t19 -45t-19 -45t-45 -19t-45 19t-19 45z" />
<glyph unicode="&#x202f;" horiz-adv-x="187" />
<glyph unicode="&#x2039;" horiz-adv-x="327" d="M32 257v1q80 44 134.5 111.5t95.5 159.5l17 -7q-24 -65 -51 -112.5t-56.5 -83t-64.5 -65.5q35 -30 64.5 -67t56.5 -86t51 -115l-17 -7q-41 92 -95.5 159.5t-134.5 111.5z" />
<glyph unicode="&#x203a;" horiz-adv-x="327" d="M48 -7q25 66 51.5 113t56.5 82.5t64 65.5q-34 30 -64 67t-56.5 86.5t-51.5 114.5l17 7q41 -92 96 -159.5t134 -111.5v-1q-79 -44 -134 -111.5t-96 -159.5z" />
<glyph unicode="&#x205f;" horiz-adv-x="234" />
<glyph unicode="&#x20ac;" horiz-adv-x="584" d="M33 297v20h332l-12 -20h-320zM33 397v20h388l-11 -20h-377zM105 348q0 112 34.5 196t95 131t138.5 47q41 0 68 -12t43 -23q20 -15 33.5 -33t13.5 -39q0 -23 -15 -38t-38 -15q-22 0 -38.5 14.5t-16.5 39.5q0 21 11.5 34t30.5 17q-7 15 -33.5 26.5t-55.5 11.5 q-82 0 -126.5 -95t-44.5 -258q0 -167 44 -258t126 -91q29 0 55.5 11.5t33.5 26.5q-19 4 -30.5 17t-11.5 34q0 26 16.5 40t38.5 14q23 0 38 -15t15 -38q0 -21 -13.5 -39t-33.5 -33q-16 -11 -43 -23t-68 -12q-120 0 -193.5 95t-73.5 267z" />
<glyph unicode="&#x2122;" horiz-adv-x="1044" d="M70 708q40 -2 91.5 -2.5t90.5 -0.5t90 0.5t91 2.5q-4 -26 -5.5 -50.5t-1.5 -37.5q0 -32 3 -52h-23q-4 66 -19.5 91.5t-44.5 25.5h-54v-299q0 -42 12.5 -53t58.5 -13v-20q-20 2 -49 2.5t-58 0.5q-33 0 -61.5 -0.5t-46.5 -2.5v20q45 2 58 13t13 53v299h-54 q-28 0 -43.5 -25.5t-20.5 -91.5h-23q3 20 3 52q0 13 -1.5 37.5t-5.5 50.5zM490 300v20q33 2 42 11t9 45v256q0 36 -9 45t-42 11v20q11 -1 28.5 -2t34.5 -1q22 0 37 1t31 2l121 -297l111 294h22.5h24.5q20 0 41.5 1t35.5 2v-20q-32 -2 -41.5 -11t-9.5 -45v-256q0 -36 9 -45 t42 -11v-20q-16 2 -40 2.5t-47 0.5q-24 0 -44 -0.5t-34 -2.5v20q26 2 33.5 11t7.5 45v266l-131 -347h-16l-142 349v-268q0 -36 8 -45t33 -11v-20q-21 3 -52 3q-17 0 -34.5 -0.5t-28.5 -2.5z" />
</font>
</defs>
</svg>
